<mxfile host="app.diagrams.net" modified="2023-10-31T09:29:09.927Z" agent="Mozilla/5.0 (Windows NT 10.0; Win64; x64) AppleWebKit/537.36 (KHTML, like Gecko) Chrome/118.0.0.0 Safari/537.36" etag="DCIn4_6nMZkP1e7AZJDR" version="22.0.8" type="google" pages="2">
  <diagram name="NDS" id="R2QI7xASVxPaS6AKSNQp">
    <mxGraphModel grid="1" page="1" gridSize="10" guides="1" tooltips="1" connect="1" arrows="1" fold="1" pageScale="1" pageWidth="827" pageHeight="1169" math="0" shadow="0">
      <root>
        <mxCell id="0" />
        <mxCell id="1" parent="0" />
        <mxCell id="8Rrfs6MWATLJ4ClplU5K-2" value="&lt;b&gt;BENH_NHAN&lt;/b&gt;" style="swimlane;fontStyle=0;childLayout=stackLayout;horizontal=1;startSize=30;horizontalStack=0;resizeParent=1;resizeParentMax=0;resizeLast=0;collapsible=1;marginBottom=0;whiteSpace=wrap;html=1;" vertex="1" parent="1">
          <mxGeometry x="100" y="80" width="140" height="210" as="geometry" />
        </mxCell>
        <mxCell id="8Rrfs6MWATLJ4ClplU5K-3" value="&lt;b&gt;&lt;u&gt;MABN_NK&lt;/u&gt;&lt;/b&gt;" style="text;strokeColor=none;fillColor=none;align=left;verticalAlign=middle;spacingLeft=4;spacingRight=4;overflow=hidden;points=[[0,0.5],[1,0.5]];portConstraint=eastwest;rotatable=0;whiteSpace=wrap;html=1;" vertex="1" parent="8Rrfs6MWATLJ4ClplU5K-2">
          <mxGeometry y="30" width="140" height="30" as="geometry" />
        </mxCell>
        <mxCell id="8Rrfs6MWATLJ4ClplU5K-4" value="HOTEN" style="text;strokeColor=none;fillColor=none;align=left;verticalAlign=middle;spacingLeft=4;spacingRight=4;overflow=hidden;points=[[0,0.5],[1,0.5]];portConstraint=eastwest;rotatable=0;whiteSpace=wrap;html=1;" vertex="1" parent="8Rrfs6MWATLJ4ClplU5K-2">
          <mxGeometry y="60" width="140" height="30" as="geometry" />
        </mxCell>
        <mxCell id="8Rrfs6MWATLJ4ClplU5K-6" value="GIOITINH" style="text;strokeColor=none;fillColor=none;align=left;verticalAlign=middle;spacingLeft=4;spacingRight=4;overflow=hidden;points=[[0,0.5],[1,0.5]];portConstraint=eastwest;rotatable=0;whiteSpace=wrap;html=1;" vertex="1" parent="8Rrfs6MWATLJ4ClplU5K-2">
          <mxGeometry y="90" width="140" height="30" as="geometry" />
        </mxCell>
        <mxCell id="8Rrfs6MWATLJ4ClplU5K-7" value="NGAYSINH" style="text;strokeColor=none;fillColor=none;align=left;verticalAlign=middle;spacingLeft=4;spacingRight=4;overflow=hidden;points=[[0,0.5],[1,0.5]];portConstraint=eastwest;rotatable=0;whiteSpace=wrap;html=1;" vertex="1" parent="8Rrfs6MWATLJ4ClplU5K-2">
          <mxGeometry y="120" width="140" height="30" as="geometry" />
        </mxCell>
        <mxCell id="8Rrfs6MWATLJ4ClplU5K-5" value="SDT" style="text;strokeColor=none;fillColor=none;align=left;verticalAlign=middle;spacingLeft=4;spacingRight=4;overflow=hidden;points=[[0,0.5],[1,0.5]];portConstraint=eastwest;rotatable=0;whiteSpace=wrap;html=1;" vertex="1" parent="8Rrfs6MWATLJ4ClplU5K-2">
          <mxGeometry y="150" width="140" height="30" as="geometry" />
        </mxCell>
        <mxCell id="RwRLK0EjdiXhZZZQFVwX-7" value="DIACHI" style="text;strokeColor=none;fillColor=none;align=left;verticalAlign=middle;spacingLeft=4;spacingRight=4;overflow=hidden;points=[[0,0.5],[1,0.5]];portConstraint=eastwest;rotatable=0;whiteSpace=wrap;html=1;" vertex="1" parent="8Rrfs6MWATLJ4ClplU5K-2">
          <mxGeometry y="180" width="140" height="30" as="geometry" />
        </mxCell>
        <mxCell id="RwRLK0EjdiXhZZZQFVwX-1" value="&lt;b&gt;BENH_AN&lt;/b&gt;" style="swimlane;fontStyle=0;childLayout=stackLayout;horizontal=1;startSize=30;horizontalStack=0;resizeParent=1;resizeParentMax=0;resizeLast=0;collapsible=1;marginBottom=0;whiteSpace=wrap;html=1;" vertex="1" parent="1">
          <mxGeometry x="400" y="-100" width="140" height="210" as="geometry" />
        </mxCell>
        <mxCell id="RwRLK0EjdiXhZZZQFVwX-2" value="&lt;b&gt;&lt;u&gt;MABA_NK&lt;/u&gt;&lt;/b&gt;" style="text;strokeColor=none;fillColor=none;align=left;verticalAlign=middle;spacingLeft=4;spacingRight=4;overflow=hidden;points=[[0,0.5],[1,0.5]];portConstraint=eastwest;rotatable=0;whiteSpace=wrap;html=1;" vertex="1" parent="RwRLK0EjdiXhZZZQFVwX-1">
          <mxGeometry y="30" width="140" height="30" as="geometry" />
        </mxCell>
        <mxCell id="RwRLK0EjdiXhZZZQFVwX-3" value="NGAYNHAPVIEN" style="text;strokeColor=none;fillColor=none;align=left;verticalAlign=middle;spacingLeft=4;spacingRight=4;overflow=hidden;points=[[0,0.5],[1,0.5]];portConstraint=eastwest;rotatable=0;whiteSpace=wrap;html=1;" vertex="1" parent="RwRLK0EjdiXhZZZQFVwX-1">
          <mxGeometry y="60" width="140" height="30" as="geometry" />
        </mxCell>
        <mxCell id="RwRLK0EjdiXhZZZQFVwX-4" value="NGAYRAVIEN" style="text;strokeColor=none;fillColor=none;align=left;verticalAlign=middle;spacingLeft=4;spacingRight=4;overflow=hidden;points=[[0,0.5],[1,0.5]];portConstraint=eastwest;rotatable=0;whiteSpace=wrap;html=1;" vertex="1" parent="RwRLK0EjdiXhZZZQFVwX-1">
          <mxGeometry y="90" width="140" height="30" as="geometry" />
        </mxCell>
        <mxCell id="RwRLK0EjdiXhZZZQFVwX-5" value="CHANDOAN" style="text;strokeColor=none;fillColor=none;align=left;verticalAlign=middle;spacingLeft=4;spacingRight=4;overflow=hidden;points=[[0,0.5],[1,0.5]];portConstraint=eastwest;rotatable=0;whiteSpace=wrap;html=1;" vertex="1" parent="RwRLK0EjdiXhZZZQFVwX-1">
          <mxGeometry y="120" width="140" height="30" as="geometry" />
        </mxCell>
        <mxCell id="RwRLK0EjdiXhZZZQFVwX-6" value="TINHTRANG" style="text;strokeColor=none;fillColor=none;align=left;verticalAlign=middle;spacingLeft=4;spacingRight=4;overflow=hidden;points=[[0,0.5],[1,0.5]];portConstraint=eastwest;rotatable=0;whiteSpace=wrap;html=1;" vertex="1" parent="RwRLK0EjdiXhZZZQFVwX-1">
          <mxGeometry y="150" width="140" height="30" as="geometry" />
        </mxCell>
        <mxCell id="zv2Aj5KOFBovMna_SVDc-4" value="TIENTHUOC" style="text;strokeColor=none;fillColor=none;align=left;verticalAlign=middle;spacingLeft=4;spacingRight=4;overflow=hidden;points=[[0,0.5],[1,0.5]];portConstraint=eastwest;rotatable=0;whiteSpace=wrap;html=1;" vertex="1" parent="RwRLK0EjdiXhZZZQFVwX-1">
          <mxGeometry y="180" width="140" height="30" as="geometry" />
        </mxCell>
        <mxCell id="ooaA-42dR-fEtYpYGjZH-1" value="&lt;b&gt;DONTHUOC_NGOAITRU&lt;/b&gt;" style="swimlane;fontStyle=0;childLayout=stackLayout;horizontal=1;startSize=30;horizontalStack=0;resizeParent=1;resizeParentMax=0;resizeLast=0;collapsible=1;marginBottom=0;whiteSpace=wrap;html=1;" vertex="1" parent="1">
          <mxGeometry x="240" y="435" width="160" height="240" as="geometry" />
        </mxCell>
        <mxCell id="ooaA-42dR-fEtYpYGjZH-2" value="&lt;b&gt;&lt;u&gt;MADT_NK&lt;br&gt;&lt;/u&gt;&lt;/b&gt;" style="text;strokeColor=none;fillColor=none;align=left;verticalAlign=middle;spacingLeft=4;spacingRight=4;overflow=hidden;points=[[0,0.5],[1,0.5]];portConstraint=eastwest;rotatable=0;whiteSpace=wrap;html=1;" vertex="1" parent="ooaA-42dR-fEtYpYGjZH-1">
          <mxGeometry y="30" width="160" height="30" as="geometry" />
        </mxCell>
        <mxCell id="ooaA-42dR-fEtYpYGjZH-7" value="MATHUOC_NK" style="text;strokeColor=none;fillColor=none;align=left;verticalAlign=middle;spacingLeft=4;spacingRight=4;overflow=hidden;points=[[0,0.5],[1,0.5]];portConstraint=eastwest;rotatable=0;whiteSpace=wrap;html=1;fontStyle=5" vertex="1" parent="ooaA-42dR-fEtYpYGjZH-1">
          <mxGeometry y="60" width="160" height="30" as="geometry" />
        </mxCell>
        <mxCell id="ooaA-42dR-fEtYpYGjZH-3" value="MABN" style="text;strokeColor=none;fillColor=none;align=left;verticalAlign=middle;spacingLeft=4;spacingRight=4;overflow=hidden;points=[[0,0.5],[1,0.5]];portConstraint=eastwest;rotatable=0;whiteSpace=wrap;html=1;fontStyle=0" vertex="1" parent="ooaA-42dR-fEtYpYGjZH-1">
          <mxGeometry y="90" width="160" height="30" as="geometry" />
        </mxCell>
        <mxCell id="ooaA-42dR-fEtYpYGjZH-4" value="NGAYKEDON" style="text;strokeColor=none;fillColor=none;align=left;verticalAlign=middle;spacingLeft=4;spacingRight=4;overflow=hidden;points=[[0,0.5],[1,0.5]];portConstraint=eastwest;rotatable=0;whiteSpace=wrap;html=1;" vertex="1" parent="ooaA-42dR-fEtYpYGjZH-1">
          <mxGeometry y="120" width="160" height="30" as="geometry" />
        </mxCell>
        <mxCell id="ooaA-42dR-fEtYpYGjZH-5" value="TENBACSI" style="text;strokeColor=none;fillColor=none;align=left;verticalAlign=middle;spacingLeft=4;spacingRight=4;overflow=hidden;points=[[0,0.5],[1,0.5]];portConstraint=eastwest;rotatable=0;whiteSpace=wrap;html=1;" vertex="1" parent="ooaA-42dR-fEtYpYGjZH-1">
          <mxGeometry y="150" width="160" height="30" as="geometry" />
        </mxCell>
        <mxCell id="ooaA-42dR-fEtYpYGjZH-8" value="SOLUONG" style="text;strokeColor=none;fillColor=none;align=left;verticalAlign=middle;spacingLeft=4;spacingRight=4;overflow=hidden;points=[[0,0.5],[1,0.5]];portConstraint=eastwest;rotatable=0;whiteSpace=wrap;html=1;" vertex="1" parent="ooaA-42dR-fEtYpYGjZH-1">
          <mxGeometry y="180" width="160" height="30" as="geometry" />
        </mxCell>
        <mxCell id="ooaA-42dR-fEtYpYGjZH-10" value="CACHDUNG" style="text;strokeColor=none;fillColor=none;align=left;verticalAlign=middle;spacingLeft=4;spacingRight=4;overflow=hidden;points=[[0,0.5],[1,0.5]];portConstraint=eastwest;rotatable=0;whiteSpace=wrap;html=1;" vertex="1" parent="ooaA-42dR-fEtYpYGjZH-1">
          <mxGeometry y="210" width="160" height="30" as="geometry" />
        </mxCell>
        <mxCell id="VLy8KoBvXWiUl9UNPdRD-1" value="&lt;b&gt;DONTHUOC_NOITRU&lt;/b&gt;" style="swimlane;fontStyle=0;childLayout=stackLayout;horizontal=1;startSize=30;horizontalStack=0;resizeParent=1;resizeParentMax=0;resizeLast=0;collapsible=1;marginBottom=0;whiteSpace=wrap;html=1;" vertex="1" parent="1">
          <mxGeometry x="730" y="80" width="140" height="210" as="geometry" />
        </mxCell>
        <mxCell id="VLy8KoBvXWiUl9UNPdRD-2" value="&lt;u style=&quot;&quot;&gt;&lt;b&gt;MADIEUTRI_NK&lt;/b&gt;&lt;/u&gt;" style="text;strokeColor=none;fillColor=none;align=left;verticalAlign=middle;spacingLeft=4;spacingRight=4;overflow=hidden;points=[[0,0.5],[1,0.5]];portConstraint=eastwest;rotatable=0;whiteSpace=wrap;html=1;" vertex="1" parent="VLy8KoBvXWiUl9UNPdRD-1">
          <mxGeometry y="30" width="140" height="30" as="geometry" />
        </mxCell>
        <mxCell id="VLy8KoBvXWiUl9UNPdRD-3" value="&lt;span&gt;&lt;span&gt;MABA&lt;/span&gt;&lt;/span&gt;" style="text;strokeColor=none;fillColor=none;align=left;verticalAlign=middle;spacingLeft=4;spacingRight=4;overflow=hidden;points=[[0,0.5],[1,0.5]];portConstraint=eastwest;rotatable=0;whiteSpace=wrap;html=1;fontStyle=0" vertex="1" parent="VLy8KoBvXWiUl9UNPdRD-1">
          <mxGeometry y="60" width="140" height="30" as="geometry" />
        </mxCell>
        <mxCell id="VLy8KoBvXWiUl9UNPdRD-4" value="&lt;span style=&quot;&quot;&gt;&lt;span style=&quot;&quot;&gt;MATHUOC&lt;/span&gt;&lt;/span&gt;" style="text;strokeColor=none;fillColor=none;align=left;verticalAlign=middle;spacingLeft=4;spacingRight=4;overflow=hidden;points=[[0,0.5],[1,0.5]];portConstraint=eastwest;rotatable=0;whiteSpace=wrap;html=1;fontStyle=0" vertex="1" parent="VLy8KoBvXWiUl9UNPdRD-1">
          <mxGeometry y="90" width="140" height="30" as="geometry" />
        </mxCell>
        <mxCell id="VLy8KoBvXWiUl9UNPdRD-5" value="SLDIEUTRI" style="text;strokeColor=none;fillColor=none;align=left;verticalAlign=middle;spacingLeft=4;spacingRight=4;overflow=hidden;points=[[0,0.5],[1,0.5]];portConstraint=eastwest;rotatable=0;whiteSpace=wrap;html=1;" vertex="1" parent="VLy8KoBvXWiUl9UNPdRD-1">
          <mxGeometry y="120" width="140" height="30" as="geometry" />
        </mxCell>
        <mxCell id="VLy8KoBvXWiUl9UNPdRD-6" value="CACHDIEUTRI" style="text;strokeColor=none;fillColor=none;align=left;verticalAlign=middle;spacingLeft=4;spacingRight=4;overflow=hidden;points=[[0,0.5],[1,0.5]];portConstraint=eastwest;rotatable=0;whiteSpace=wrap;html=1;" vertex="1" parent="VLy8KoBvXWiUl9UNPdRD-1">
          <mxGeometry y="150" width="140" height="30" as="geometry" />
        </mxCell>
        <mxCell id="VLy8KoBvXWiUl9UNPdRD-8" value="NGAYDIEUTRI" style="text;strokeColor=none;fillColor=none;align=left;verticalAlign=middle;spacingLeft=4;spacingRight=4;overflow=hidden;points=[[0,0.5],[1,0.5]];portConstraint=eastwest;rotatable=0;whiteSpace=wrap;html=1;" vertex="1" parent="VLy8KoBvXWiUl9UNPdRD-1">
          <mxGeometry y="180" width="140" height="30" as="geometry" />
        </mxCell>
        <mxCell id="DNE5kLvQrCf0t_ELGMPr-1" value="&lt;b&gt;THUOC&lt;/b&gt;" style="swimlane;fontStyle=0;childLayout=stackLayout;horizontal=1;startSize=30;horizontalStack=0;resizeParent=1;resizeParentMax=0;resizeLast=0;collapsible=1;marginBottom=0;whiteSpace=wrap;html=1;" vertex="1" parent="1">
          <mxGeometry x="540" y="460" width="140" height="240" as="geometry" />
        </mxCell>
        <mxCell id="DNE5kLvQrCf0t_ELGMPr-2" value="&lt;b&gt;&lt;u&gt;MATHUOC_NK&lt;/u&gt;&lt;/b&gt;" style="text;strokeColor=none;fillColor=none;align=left;verticalAlign=middle;spacingLeft=4;spacingRight=4;overflow=hidden;points=[[0,0.5],[1,0.5]];portConstraint=eastwest;rotatable=0;whiteSpace=wrap;html=1;" vertex="1" parent="DNE5kLvQrCf0t_ELGMPr-1">
          <mxGeometry y="30" width="140" height="30" as="geometry" />
        </mxCell>
        <mxCell id="DNE5kLvQrCf0t_ELGMPr-3" value="TENTHUOC" style="text;strokeColor=none;fillColor=none;align=left;verticalAlign=middle;spacingLeft=4;spacingRight=4;overflow=hidden;points=[[0,0.5],[1,0.5]];portConstraint=eastwest;rotatable=0;whiteSpace=wrap;html=1;" vertex="1" parent="DNE5kLvQrCf0t_ELGMPr-1">
          <mxGeometry y="60" width="140" height="30" as="geometry" />
        </mxCell>
        <mxCell id="DNE5kLvQrCf0t_ELGMPr-4" value="ĐVT" style="text;strokeColor=none;fillColor=none;align=left;verticalAlign=middle;spacingLeft=4;spacingRight=4;overflow=hidden;points=[[0,0.5],[1,0.5]];portConstraint=eastwest;rotatable=0;whiteSpace=wrap;html=1;" vertex="1" parent="DNE5kLvQrCf0t_ELGMPr-1">
          <mxGeometry y="90" width="140" height="30" as="geometry" />
        </mxCell>
        <mxCell id="DNE5kLvQrCf0t_ELGMPr-6" value="MANSX" style="text;strokeColor=none;fillColor=none;align=left;verticalAlign=middle;spacingLeft=4;spacingRight=4;overflow=hidden;points=[[0,0.5],[1,0.5]];portConstraint=eastwest;rotatable=0;whiteSpace=wrap;html=1;" vertex="1" parent="DNE5kLvQrCf0t_ELGMPr-1">
          <mxGeometry y="120" width="140" height="30" as="geometry" />
        </mxCell>
        <mxCell id="DNE5kLvQrCf0t_ELGMPr-7" value="GIABAN" style="text;strokeColor=none;fillColor=none;align=left;verticalAlign=middle;spacingLeft=4;spacingRight=4;overflow=hidden;points=[[0,0.5],[1,0.5]];portConstraint=eastwest;rotatable=0;whiteSpace=wrap;html=1;" vertex="1" parent="DNE5kLvQrCf0t_ELGMPr-1">
          <mxGeometry y="150" width="140" height="30" as="geometry" />
        </mxCell>
        <mxCell id="DNE5kLvQrCf0t_ELGMPr-9" value="HANDUNG" style="text;strokeColor=none;fillColor=none;align=left;verticalAlign=middle;spacingLeft=4;spacingRight=4;overflow=hidden;points=[[0,0.5],[1,0.5]];portConstraint=eastwest;rotatable=0;whiteSpace=wrap;html=1;" vertex="1" parent="DNE5kLvQrCf0t_ELGMPr-1">
          <mxGeometry y="180" width="140" height="30" as="geometry" />
        </mxCell>
        <mxCell id="zv2Aj5KOFBovMna_SVDc-2" value="BAOHIEM" style="text;strokeColor=none;fillColor=none;align=left;verticalAlign=middle;spacingLeft=4;spacingRight=4;overflow=hidden;points=[[0,0.5],[1,0.5]];portConstraint=eastwest;rotatable=0;whiteSpace=wrap;html=1;" vertex="1" parent="DNE5kLvQrCf0t_ELGMPr-1">
          <mxGeometry y="210" width="140" height="30" as="geometry" />
        </mxCell>
        <mxCell id="zv2Aj5KOFBovMna_SVDc-3" value="" style="fontSize=14;html=1;endArrow=ERzeroToMany;startArrow=ERmandOne;rounded=0;startSize=8;endSize=8;entryX=0;entryY=0.5;entryDx=0;entryDy=0;startFill=0;endFill=0;exitX=0.5;exitY=0.978;exitDx=0;exitDy=0;exitPerimeter=0;" edge="1" parent="1" source="RwRLK0EjdiXhZZZQFVwX-7" target="ooaA-42dR-fEtYpYGjZH-5">
          <mxGeometry width="100" height="100" relative="1" as="geometry">
            <mxPoint x="300" y="302" as="sourcePoint" />
            <mxPoint x="370" y="220" as="targetPoint" />
          </mxGeometry>
        </mxCell>
        <mxCell id="DNE5kLvQrCf0t_ELGMPr-10" value="" style="fontSize=14;html=1;endArrow=ERzeroToMany;startArrow=ERoneToMany;rounded=0;startSize=8;endSize=8;entryX=1;entryY=0.5;entryDx=0;entryDy=0;startFill=0;endFill=0;exitX=0;exitY=0.5;exitDx=0;exitDy=0;" edge="1" parent="1" source="DNE5kLvQrCf0t_ELGMPr-7">
          <mxGeometry width="100" height="100" relative="1" as="geometry">
            <mxPoint x="485" y="585" as="sourcePoint" />
            <mxPoint x="400" y="630" as="targetPoint" />
          </mxGeometry>
        </mxCell>
        <mxCell id="zv2Aj5KOFBovMna_SVDc-5" value="" style="fontSize=14;html=1;endArrow=ERoneToMany;startArrow=ERzeroToMany;rounded=0;startSize=8;endSize=8;entryX=1;entryY=0.5;entryDx=0;entryDy=0;startFill=0;endFill=0;exitX=0.5;exitY=1.036;exitDx=0;exitDy=0;exitPerimeter=0;" edge="1" parent="1" source="VLy8KoBvXWiUl9UNPdRD-8" target="DNE5kLvQrCf0t_ELGMPr-7">
          <mxGeometry width="100" height="100" relative="1" as="geometry">
            <mxPoint x="800.6999999999998" y="321.67999999999984" as="sourcePoint" />
            <mxPoint x="110" y="565" as="targetPoint" />
          </mxGeometry>
        </mxCell>
        <mxCell id="zv2Aj5KOFBovMna_SVDc-6" value="" style="fontSize=14;html=1;endArrow=ERmandOne;startArrow=ERzeroToMany;rounded=0;startSize=8;endSize=8;startFill=0;endFill=0;exitX=0;exitY=0.5;exitDx=0;exitDy=0;entryX=1;entryY=0.5;entryDx=0;entryDy=0;" edge="1" parent="1" source="RwRLK0EjdiXhZZZQFVwX-4" target="8Rrfs6MWATLJ4ClplU5K-3">
          <mxGeometry width="100" height="100" relative="1" as="geometry">
            <mxPoint x="450" y="265" as="sourcePoint" />
            <mxPoint x="252" y="228" as="targetPoint" />
          </mxGeometry>
        </mxCell>
        <mxCell id="ks6gDjedaS0dtNTVonvE-1" value="" style="fontSize=14;html=1;endArrow=ERmandOne;startArrow=ERoneToMany;rounded=0;startSize=8;endSize=8;entryX=1;entryY=0.5;entryDx=0;entryDy=0;startFill=0;endFill=0;exitX=0.017;exitY=-0.118;exitDx=0;exitDy=0;exitPerimeter=0;" edge="1" parent="1" source="VLy8KoBvXWiUl9UNPdRD-3" target="RwRLK0EjdiXhZZZQFVwX-4">
          <mxGeometry width="100" height="100" relative="1" as="geometry">
            <mxPoint x="690" y="155" as="sourcePoint" />
            <mxPoint x="640" y="535" as="targetPoint" />
          </mxGeometry>
        </mxCell>
        <mxCell id="SZoPB1TuYZBH3FzdZV0k-1" value="&lt;b&gt;KHUVUC&lt;/b&gt;" style="swimlane;fontStyle=0;childLayout=stackLayout;horizontal=1;startSize=30;horizontalStack=0;resizeParent=1;resizeParentMax=0;resizeLast=0;collapsible=1;marginBottom=0;whiteSpace=wrap;html=1;" vertex="1" parent="1">
          <mxGeometry x="100" y="-260" width="140" height="180" as="geometry" />
        </mxCell>
        <mxCell id="SZoPB1TuYZBH3FzdZV0k-2" value="&lt;b&gt;&lt;u&gt;MAKHUVUC&lt;/u&gt;&lt;/b&gt;" style="text;strokeColor=none;fillColor=none;align=left;verticalAlign=middle;spacingLeft=4;spacingRight=4;overflow=hidden;points=[[0,0.5],[1,0.5]];portConstraint=eastwest;rotatable=0;whiteSpace=wrap;html=1;" vertex="1" parent="SZoPB1TuYZBH3FzdZV0k-1">
          <mxGeometry y="30" width="140" height="30" as="geometry" />
        </mxCell>
        <mxCell id="SZoPB1TuYZBH3FzdZV0k-3" value="SONHA_DUONG" style="text;strokeColor=none;fillColor=none;align=left;verticalAlign=middle;spacingLeft=4;spacingRight=4;overflow=hidden;points=[[0,0.5],[1,0.5]];portConstraint=eastwest;rotatable=0;whiteSpace=wrap;html=1;" vertex="1" parent="SZoPB1TuYZBH3FzdZV0k-1">
          <mxGeometry y="60" width="140" height="30" as="geometry" />
        </mxCell>
        <mxCell id="SZoPB1TuYZBH3FzdZV0k-4" value="PHUONG" style="text;strokeColor=none;fillColor=none;align=left;verticalAlign=middle;spacingLeft=4;spacingRight=4;overflow=hidden;points=[[0,0.5],[1,0.5]];portConstraint=eastwest;rotatable=0;whiteSpace=wrap;html=1;" vertex="1" parent="SZoPB1TuYZBH3FzdZV0k-1">
          <mxGeometry y="90" width="140" height="30" as="geometry" />
        </mxCell>
        <mxCell id="SZoPB1TuYZBH3FzdZV0k-5" value="QUAN" style="text;strokeColor=none;fillColor=none;align=left;verticalAlign=middle;spacingLeft=4;spacingRight=4;overflow=hidden;points=[[0,0.5],[1,0.5]];portConstraint=eastwest;rotatable=0;whiteSpace=wrap;html=1;" vertex="1" parent="SZoPB1TuYZBH3FzdZV0k-1">
          <mxGeometry y="120" width="140" height="30" as="geometry" />
        </mxCell>
        <mxCell id="SZoPB1TuYZBH3FzdZV0k-6" value="THANHPHO" style="text;strokeColor=none;fillColor=none;align=left;verticalAlign=middle;spacingLeft=4;spacingRight=4;overflow=hidden;points=[[0,0.5],[1,0.5]];portConstraint=eastwest;rotatable=0;whiteSpace=wrap;html=1;" vertex="1" parent="SZoPB1TuYZBH3FzdZV0k-1">
          <mxGeometry y="150" width="140" height="30" as="geometry" />
        </mxCell>
        <mxCell id="9w3JQ4pBzDToxN6ZpZ0x-1" value="&lt;b&gt;THOIGIAN&lt;/b&gt;" style="swimlane;fontStyle=0;childLayout=stackLayout;horizontal=1;startSize=30;horizontalStack=0;resizeParent=1;resizeParentMax=0;resizeLast=0;collapsible=1;marginBottom=0;whiteSpace=wrap;html=1;" vertex="1" parent="1">
          <mxGeometry x="400" y="200" width="140" height="150" as="geometry" />
        </mxCell>
        <mxCell id="9w3JQ4pBzDToxN6ZpZ0x-2" value="&lt;b&gt;MATHOIGIAN_NK&lt;/b&gt;" style="text;strokeColor=none;fillColor=none;align=left;verticalAlign=middle;spacingLeft=4;spacingRight=4;overflow=hidden;points=[[0,0.5],[1,0.5]];portConstraint=eastwest;rotatable=0;whiteSpace=wrap;html=1;fontStyle=4" vertex="1" parent="9w3JQ4pBzDToxN6ZpZ0x-1">
          <mxGeometry y="30" width="140" height="30" as="geometry" />
        </mxCell>
        <mxCell id="9w3JQ4pBzDToxN6ZpZ0x-3" value="NGAY" style="text;strokeColor=none;fillColor=none;align=left;verticalAlign=middle;spacingLeft=4;spacingRight=4;overflow=hidden;points=[[0,0.5],[1,0.5]];portConstraint=eastwest;rotatable=0;whiteSpace=wrap;html=1;" vertex="1" parent="9w3JQ4pBzDToxN6ZpZ0x-1">
          <mxGeometry y="60" width="140" height="30" as="geometry" />
        </mxCell>
        <mxCell id="9w3JQ4pBzDToxN6ZpZ0x-4" value="THANG" style="text;strokeColor=none;fillColor=none;align=left;verticalAlign=middle;spacingLeft=4;spacingRight=4;overflow=hidden;points=[[0,0.5],[1,0.5]];portConstraint=eastwest;rotatable=0;whiteSpace=wrap;html=1;" vertex="1" parent="9w3JQ4pBzDToxN6ZpZ0x-1">
          <mxGeometry y="90" width="140" height="30" as="geometry" />
        </mxCell>
        <mxCell id="9w3JQ4pBzDToxN6ZpZ0x-5" value="NAM" style="text;strokeColor=none;fillColor=none;align=left;verticalAlign=middle;spacingLeft=4;spacingRight=4;overflow=hidden;points=[[0,0.5],[1,0.5]];portConstraint=eastwest;rotatable=0;whiteSpace=wrap;html=1;" vertex="1" parent="9w3JQ4pBzDToxN6ZpZ0x-1">
          <mxGeometry y="120" width="140" height="30" as="geometry" />
        </mxCell>
        <mxCell id="9w3JQ4pBzDToxN6ZpZ0x-7" value="" style="fontSize=14;html=1;endArrow=ERmandOne;startArrow=ERzeroToMany;rounded=0;startSize=8;endSize=8;startFill=0;endFill=0;exitX=0.493;exitY=1.031;exitDx=0;exitDy=0;entryX=0.5;entryY=0;entryDx=0;entryDy=0;exitPerimeter=0;" edge="1" parent="1" source="SZoPB1TuYZBH3FzdZV0k-6" target="8Rrfs6MWATLJ4ClplU5K-2">
          <mxGeometry width="100" height="100" relative="1" as="geometry">
            <mxPoint x="390" y="-265" as="sourcePoint" />
            <mxPoint x="110" y="225" as="targetPoint" />
          </mxGeometry>
        </mxCell>
        <mxCell id="9w3JQ4pBzDToxN6ZpZ0x-6" value="" style="fontSize=14;html=1;endArrow=ERmandOne;startArrow=ERzeroToMany;rounded=0;startSize=8;endSize=8;startFill=0;endFill=0;exitX=1;exitY=0.5;exitDx=0;exitDy=0;entryX=0;entryY=0.5;entryDx=0;entryDy=0;" edge="1" parent="1" source="8Rrfs6MWATLJ4ClplU5K-5" target="9w3JQ4pBzDToxN6ZpZ0x-2">
          <mxGeometry width="100" height="100" relative="1" as="geometry">
            <mxPoint x="410" y="15" as="sourcePoint" />
            <mxPoint x="250" y="225" as="targetPoint" />
          </mxGeometry>
        </mxCell>
        <mxCell id="9w3JQ4pBzDToxN6ZpZ0x-8" value="" style="fontSize=14;html=1;endArrow=ERmandOne;startArrow=ERzeroToMany;rounded=0;startSize=8;endSize=8;startFill=0;endFill=0;entryX=0.5;entryY=0;entryDx=0;entryDy=0;" edge="1" parent="1" source="zv2Aj5KOFBovMna_SVDc-4" target="9w3JQ4pBzDToxN6ZpZ0x-1">
          <mxGeometry width="100" height="100" relative="1" as="geometry">
            <mxPoint x="250" y="225" as="sourcePoint" />
            <mxPoint x="424" y="285" as="targetPoint" />
          </mxGeometry>
        </mxCell>
        <mxCell id="9w3JQ4pBzDToxN6ZpZ0x-9" value="" style="fontSize=14;html=1;endArrow=ERmandOne;startArrow=ERzeroToMany;rounded=0;startSize=8;endSize=8;startFill=0;endFill=0;entryX=0;entryY=0.5;entryDx=0;entryDy=0;exitX=0.5;exitY=0;exitDx=0;exitDy=0;" edge="1" parent="1" source="ooaA-42dR-fEtYpYGjZH-1" target="9w3JQ4pBzDToxN6ZpZ0x-5">
          <mxGeometry width="100" height="100" relative="1" as="geometry">
            <mxPoint x="482" y="120" as="sourcePoint" />
            <mxPoint x="494" y="240" as="targetPoint" />
          </mxGeometry>
        </mxCell>
        <mxCell id="9w3JQ4pBzDToxN6ZpZ0x-10" value="" style="fontSize=14;html=1;endArrow=ERmandOne;startArrow=ERzeroToMany;rounded=0;startSize=8;endSize=8;startFill=0;endFill=0;entryX=1;entryY=0.5;entryDx=0;entryDy=0;exitX=0.5;exitY=0;exitDx=0;exitDy=0;" edge="1" parent="1" source="DNE5kLvQrCf0t_ELGMPr-1" target="9w3JQ4pBzDToxN6ZpZ0x-5">
          <mxGeometry width="100" height="100" relative="1" as="geometry">
            <mxPoint x="330" y="445" as="sourcePoint" />
            <mxPoint x="424" y="345" as="targetPoint" />
          </mxGeometry>
        </mxCell>
        <mxCell id="9w3JQ4pBzDToxN6ZpZ0x-11" value="" style="fontSize=14;html=1;endArrow=ERmandOne;startArrow=ERzeroToMany;rounded=0;startSize=8;endSize=8;startFill=0;endFill=0;entryX=1;entryY=0.5;entryDx=0;entryDy=0;exitX=0;exitY=0.5;exitDx=0;exitDy=0;" edge="1" parent="1" source="VLy8KoBvXWiUl9UNPdRD-6" target="9w3JQ4pBzDToxN6ZpZ0x-2">
          <mxGeometry width="100" height="100" relative="1" as="geometry">
            <mxPoint x="550" y="445" as="sourcePoint" />
            <mxPoint x="538" y="389" as="targetPoint" />
          </mxGeometry>
        </mxCell>
        <mxCell id="9w3JQ4pBzDToxN6ZpZ0x-12" value="&lt;b&gt;DONVITINH&lt;/b&gt;" style="swimlane;fontStyle=0;childLayout=stackLayout;horizontal=1;startSize=30;horizontalStack=0;resizeParent=1;resizeParentMax=0;resizeLast=0;collapsible=1;marginBottom=0;whiteSpace=wrap;html=1;" vertex="1" parent="1">
          <mxGeometry x="590" y="800" width="140" height="90" as="geometry" />
        </mxCell>
        <mxCell id="9w3JQ4pBzDToxN6ZpZ0x-13" value="&lt;b&gt;MADVT&lt;/b&gt;" style="text;strokeColor=none;fillColor=none;align=left;verticalAlign=middle;spacingLeft=4;spacingRight=4;overflow=hidden;points=[[0,0.5],[1,0.5]];portConstraint=eastwest;rotatable=0;whiteSpace=wrap;html=1;fontStyle=4" vertex="1" parent="9w3JQ4pBzDToxN6ZpZ0x-12">
          <mxGeometry y="30" width="140" height="30" as="geometry" />
        </mxCell>
        <mxCell id="9w3JQ4pBzDToxN6ZpZ0x-14" value="DVT" style="text;strokeColor=none;fillColor=none;align=left;verticalAlign=middle;spacingLeft=4;spacingRight=4;overflow=hidden;points=[[0,0.5],[1,0.5]];portConstraint=eastwest;rotatable=0;whiteSpace=wrap;html=1;" vertex="1" parent="9w3JQ4pBzDToxN6ZpZ0x-12">
          <mxGeometry y="60" width="140" height="30" as="geometry" />
        </mxCell>
        <mxCell id="9w3JQ4pBzDToxN6ZpZ0x-17" value="" style="fontSize=14;html=1;endArrow=ERmandOne;startArrow=ERoneToMany;rounded=0;startSize=8;endSize=8;entryX=0.25;entryY=0;entryDx=0;entryDy=0;startFill=0;endFill=0;exitX=0.595;exitY=1.067;exitDx=0;exitDy=0;exitPerimeter=0;" edge="1" parent="1" source="zv2Aj5KOFBovMna_SVDc-2" target="9w3JQ4pBzDToxN6ZpZ0x-12">
          <mxGeometry width="100" height="100" relative="1" as="geometry">
            <mxPoint x="550" y="640" as="sourcePoint" />
            <mxPoint x="410" y="640" as="targetPoint" />
          </mxGeometry>
        </mxCell>
        <mxCell id="s1Ul6vUriSPXF8O03b6O-1" value="&lt;b&gt;NHASANXUAT&lt;/b&gt;" style="swimlane;fontStyle=0;childLayout=stackLayout;horizontal=1;startSize=30;horizontalStack=0;resizeParent=1;resizeParentMax=0;resizeLast=0;collapsible=1;marginBottom=0;whiteSpace=wrap;html=1;" vertex="1" parent="1">
          <mxGeometry x="827" y="610" width="140" height="90" as="geometry" />
        </mxCell>
        <mxCell id="s1Ul6vUriSPXF8O03b6O-2" value="&lt;b&gt;MANSX&lt;/b&gt;" style="text;strokeColor=none;fillColor=none;align=left;verticalAlign=middle;spacingLeft=4;spacingRight=4;overflow=hidden;points=[[0,0.5],[1,0.5]];portConstraint=eastwest;rotatable=0;whiteSpace=wrap;html=1;fontStyle=4" vertex="1" parent="s1Ul6vUriSPXF8O03b6O-1">
          <mxGeometry y="30" width="140" height="30" as="geometry" />
        </mxCell>
        <mxCell id="s1Ul6vUriSPXF8O03b6O-3" value="DVT" style="text;strokeColor=none;fillColor=none;align=left;verticalAlign=middle;spacingLeft=4;spacingRight=4;overflow=hidden;points=[[0,0.5],[1,0.5]];portConstraint=eastwest;rotatable=0;whiteSpace=wrap;html=1;" vertex="1" parent="s1Ul6vUriSPXF8O03b6O-1">
          <mxGeometry y="60" width="140" height="30" as="geometry" />
        </mxCell>
        <mxCell id="s1Ul6vUriSPXF8O03b6O-6" value="" style="fontSize=14;html=1;endArrow=ERmandOne;startArrow=ERoneToMany;rounded=0;startSize=8;endSize=8;entryX=0;entryY=0.5;entryDx=0;entryDy=0;startFill=0;endFill=0;exitX=1;exitY=0.5;exitDx=0;exitDy=0;" edge="1" parent="1" source="DNE5kLvQrCf0t_ELGMPr-9" target="s1Ul6vUriSPXF8O03b6O-2">
          <mxGeometry width="100" height="100" relative="1" as="geometry">
            <mxPoint x="633" y="712" as="sourcePoint" />
            <mxPoint x="635" y="810" as="targetPoint" />
          </mxGeometry>
        </mxCell>
      </root>
    </mxGraphModel>
  </diagram>
  <diagram id="Epkd1Da016MwEOu_w0PB" name="DDS">
    <mxGraphModel grid="1" page="1" gridSize="10" guides="1" tooltips="1" connect="1" arrows="1" fold="1" pageScale="1" pageWidth="827" pageHeight="1169" math="0" shadow="0">
      <root>
        <mxCell id="0" />
        <mxCell id="1" parent="0" />
        <mxCell id="FgiMyKoWZgUhgYiODNA--1" value="&lt;b&gt;DIM_THOIGIAN&lt;/b&gt;" style="swimlane;fontStyle=0;childLayout=stackLayout;horizontal=1;startSize=30;horizontalStack=0;resizeParent=1;resizeParentMax=0;resizeLast=0;collapsible=1;marginBottom=0;whiteSpace=wrap;html=1;" vertex="1" parent="1">
          <mxGeometry x="550" y="680" width="140" height="150" as="geometry" />
        </mxCell>
        <mxCell id="FgiMyKoWZgUhgYiODNA--2" value="&lt;b&gt;MATHOIGIAN&lt;/b&gt;" style="text;strokeColor=none;fillColor=none;align=left;verticalAlign=middle;spacingLeft=4;spacingRight=4;overflow=hidden;points=[[0,0.5],[1,0.5]];portConstraint=eastwest;rotatable=0;whiteSpace=wrap;html=1;fontStyle=4" vertex="1" parent="FgiMyKoWZgUhgYiODNA--1">
          <mxGeometry y="30" width="140" height="30" as="geometry" />
        </mxCell>
        <mxCell id="FgiMyKoWZgUhgYiODNA--3" value="NGAY" style="text;strokeColor=none;fillColor=none;align=left;verticalAlign=middle;spacingLeft=4;spacingRight=4;overflow=hidden;points=[[0,0.5],[1,0.5]];portConstraint=eastwest;rotatable=0;whiteSpace=wrap;html=1;" vertex="1" parent="FgiMyKoWZgUhgYiODNA--1">
          <mxGeometry y="60" width="140" height="30" as="geometry" />
        </mxCell>
        <mxCell id="FgiMyKoWZgUhgYiODNA--4" value="THANG" style="text;strokeColor=none;fillColor=none;align=left;verticalAlign=middle;spacingLeft=4;spacingRight=4;overflow=hidden;points=[[0,0.5],[1,0.5]];portConstraint=eastwest;rotatable=0;whiteSpace=wrap;html=1;" vertex="1" parent="FgiMyKoWZgUhgYiODNA--1">
          <mxGeometry y="90" width="140" height="30" as="geometry" />
        </mxCell>
        <mxCell id="FgiMyKoWZgUhgYiODNA--5" value="NAM" style="text;strokeColor=none;fillColor=none;align=left;verticalAlign=middle;spacingLeft=4;spacingRight=4;overflow=hidden;points=[[0,0.5],[1,0.5]];portConstraint=eastwest;rotatable=0;whiteSpace=wrap;html=1;" vertex="1" parent="FgiMyKoWZgUhgYiODNA--1">
          <mxGeometry y="120" width="140" height="30" as="geometry" />
        </mxCell>
        <mxCell id="FgiMyKoWZgUhgYiODNA--6" value="&lt;b&gt;DIM_BENH_NHAN&lt;/b&gt;" style="swimlane;fontStyle=0;childLayout=stackLayout;horizontal=1;startSize=30;horizontalStack=0;resizeParent=1;resizeParentMax=0;resizeLast=0;collapsible=1;marginBottom=0;whiteSpace=wrap;html=1;" vertex="1" parent="1">
          <mxGeometry x="305" y="55" width="140" height="240" as="geometry" />
        </mxCell>
        <mxCell id="FgiMyKoWZgUhgYiODNA--7" value="&lt;b&gt;&lt;u&gt;MABN_SK&lt;br&gt;&lt;/u&gt;&lt;/b&gt;" style="text;strokeColor=none;fillColor=none;align=left;verticalAlign=middle;spacingLeft=4;spacingRight=4;overflow=hidden;points=[[0,0.5],[1,0.5]];portConstraint=eastwest;rotatable=0;whiteSpace=wrap;html=1;" vertex="1" parent="FgiMyKoWZgUhgYiODNA--6">
          <mxGeometry y="30" width="140" height="30" as="geometry" />
        </mxCell>
        <mxCell id="E_-J7lHhQHx3SmSnOYsc-1" value="&lt;span&gt;&lt;span&gt;MABN_NK&lt;br&gt;&lt;/span&gt;&lt;/span&gt;" style="text;strokeColor=none;fillColor=none;align=left;verticalAlign=middle;spacingLeft=4;spacingRight=4;overflow=hidden;points=[[0,0.5],[1,0.5]];portConstraint=eastwest;rotatable=0;whiteSpace=wrap;html=1;fontStyle=0" vertex="1" parent="FgiMyKoWZgUhgYiODNA--6">
          <mxGeometry y="60" width="140" height="30" as="geometry" />
        </mxCell>
        <mxCell id="FgiMyKoWZgUhgYiODNA--8" value="HOTEN" style="text;strokeColor=none;fillColor=none;align=left;verticalAlign=middle;spacingLeft=4;spacingRight=4;overflow=hidden;points=[[0,0.5],[1,0.5]];portConstraint=eastwest;rotatable=0;whiteSpace=wrap;html=1;" vertex="1" parent="FgiMyKoWZgUhgYiODNA--6">
          <mxGeometry y="90" width="140" height="30" as="geometry" />
        </mxCell>
        <mxCell id="FgiMyKoWZgUhgYiODNA--9" value="GIOITINH" style="text;strokeColor=none;fillColor=none;align=left;verticalAlign=middle;spacingLeft=4;spacingRight=4;overflow=hidden;points=[[0,0.5],[1,0.5]];portConstraint=eastwest;rotatable=0;whiteSpace=wrap;html=1;" vertex="1" parent="FgiMyKoWZgUhgYiODNA--6">
          <mxGeometry y="120" width="140" height="30" as="geometry" />
        </mxCell>
        <mxCell id="FgiMyKoWZgUhgYiODNA--10" value="NGAYSINH" style="text;strokeColor=none;fillColor=none;align=left;verticalAlign=middle;spacingLeft=4;spacingRight=4;overflow=hidden;points=[[0,0.5],[1,0.5]];portConstraint=eastwest;rotatable=0;whiteSpace=wrap;html=1;" vertex="1" parent="FgiMyKoWZgUhgYiODNA--6">
          <mxGeometry y="150" width="140" height="30" as="geometry" />
        </mxCell>
        <mxCell id="zc2m2t-iyuaV7BmuTLAf-1" value="SDT" style="text;strokeColor=none;fillColor=none;align=left;verticalAlign=middle;spacingLeft=4;spacingRight=4;overflow=hidden;points=[[0,0.5],[1,0.5]];portConstraint=eastwest;rotatable=0;whiteSpace=wrap;html=1;" vertex="1" parent="FgiMyKoWZgUhgYiODNA--6">
          <mxGeometry y="180" width="140" height="30" as="geometry" />
        </mxCell>
        <mxCell id="FgiMyKoWZgUhgYiODNA--11" value="DIACHI" style="text;strokeColor=none;fillColor=none;align=left;verticalAlign=middle;spacingLeft=4;spacingRight=4;overflow=hidden;points=[[0,0.5],[1,0.5]];portConstraint=eastwest;rotatable=0;whiteSpace=wrap;html=1;" vertex="1" parent="FgiMyKoWZgUhgYiODNA--6">
          <mxGeometry y="210" width="140" height="30" as="geometry" />
        </mxCell>
        <mxCell id="FgiMyKoWZgUhgYiODNA--21" value="&lt;b&gt;FACT_NHAPVIEN&lt;/b&gt;" style="swimlane;fontStyle=0;childLayout=stackLayout;horizontal=1;startSize=30;horizontalStack=0;resizeParent=1;resizeParentMax=0;resizeLast=0;collapsible=1;marginBottom=0;whiteSpace=wrap;html=1;" vertex="1" parent="1">
          <mxGeometry x="305" y="360" width="140" height="180" as="geometry" />
        </mxCell>
        <mxCell id="FgiMyKoWZgUhgYiODNA--22" value="&lt;b&gt;MABA_SK (FK)&lt;/b&gt;" style="text;strokeColor=none;fillColor=none;align=left;verticalAlign=middle;spacingLeft=4;spacingRight=4;overflow=hidden;points=[[0,0.5],[1,0.5]];portConstraint=eastwest;rotatable=0;whiteSpace=wrap;html=1;" vertex="1" parent="FgiMyKoWZgUhgYiODNA--21">
          <mxGeometry y="30" width="140" height="30" as="geometry" />
        </mxCell>
        <mxCell id="FgiMyKoWZgUhgYiODNA--23" value="&lt;b style=&quot;border-color: var(--border-color);&quot;&gt;MATHOIGIAN (FK)&lt;/b&gt;" style="text;strokeColor=none;fillColor=none;align=left;verticalAlign=middle;spacingLeft=4;spacingRight=4;overflow=hidden;points=[[0,0.5],[1,0.5]];portConstraint=eastwest;rotatable=0;whiteSpace=wrap;html=1;" vertex="1" parent="FgiMyKoWZgUhgYiODNA--21">
          <mxGeometry y="60" width="140" height="30" as="geometry" />
        </mxCell>
        <mxCell id="FgiMyKoWZgUhgYiODNA--24" value="&lt;b&gt;MABN_SK (FK)&lt;/b&gt;" style="text;strokeColor=none;fillColor=none;align=left;verticalAlign=middle;spacingLeft=4;spacingRight=4;overflow=hidden;points=[[0,0.5],[1,0.5]];portConstraint=eastwest;rotatable=0;whiteSpace=wrap;html=1;" vertex="1" parent="FgiMyKoWZgUhgYiODNA--21">
          <mxGeometry y="90" width="140" height="30" as="geometry" />
        </mxCell>
        <mxCell id="FgiMyKoWZgUhgYiODNA--27" value="NGAYNHAPVIEN" style="text;strokeColor=none;fillColor=none;align=left;verticalAlign=middle;spacingLeft=4;spacingRight=4;overflow=hidden;points=[[0,0.5],[1,0.5]];portConstraint=eastwest;rotatable=0;whiteSpace=wrap;html=1;" vertex="1" parent="FgiMyKoWZgUhgYiODNA--21">
          <mxGeometry y="120" width="140" height="30" as="geometry" />
        </mxCell>
        <mxCell id="wXJu7Ae6dgggPRw4Vmmt-3" value="" style="endArrow=none;html=1;rounded=0;entryX=0.998;entryY=-0.059;entryDx=0;entryDy=0;entryPerimeter=0;exitX=-0.002;exitY=0.972;exitDx=0;exitDy=0;exitPerimeter=0;" edge="1" parent="FgiMyKoWZgUhgYiODNA--21" source="FgiMyKoWZgUhgYiODNA--27" target="FgiMyKoWZgUhgYiODNA--25">
          <mxGeometry width="50" height="50" relative="1" as="geometry">
            <mxPoint x="-5" y="150" as="sourcePoint" />
            <mxPoint x="165" y="149.05" as="targetPoint" />
          </mxGeometry>
        </mxCell>
        <mxCell id="FgiMyKoWZgUhgYiODNA--25" value="SOLANNHAPVIEN" style="text;strokeColor=none;fillColor=none;align=left;verticalAlign=middle;spacingLeft=4;spacingRight=4;overflow=hidden;points=[[0,0.5],[1,0.5]];portConstraint=eastwest;rotatable=0;whiteSpace=wrap;html=1;" vertex="1" parent="FgiMyKoWZgUhgYiODNA--21">
          <mxGeometry y="150" width="140" height="30" as="geometry" />
        </mxCell>
        <mxCell id="FgiMyKoWZgUhgYiODNA--47" value="&lt;b&gt;Fact_SOLUONG_BN_TUVONG&lt;/b&gt;" style="swimlane;fontStyle=0;childLayout=stackLayout;horizontal=1;startSize=30;horizontalStack=0;resizeParent=1;resizeParentMax=0;resizeLast=0;collapsible=1;marginBottom=0;whiteSpace=wrap;html=1;" vertex="1" parent="1">
          <mxGeometry x="60" y="360" width="170" height="300" as="geometry" />
        </mxCell>
        <mxCell id="FgiMyKoWZgUhgYiODNA--48" value="&lt;b&gt;MABA&amp;nbsp;&lt;/b&gt;&lt;b style=&quot;border-color: var(--border-color);&quot;&gt;(FK)&lt;/b&gt;" style="text;strokeColor=none;fillColor=none;align=left;verticalAlign=middle;spacingLeft=4;spacingRight=4;overflow=hidden;points=[[0,0.5],[1,0.5]];portConstraint=eastwest;rotatable=0;whiteSpace=wrap;html=1;" vertex="1" parent="FgiMyKoWZgUhgYiODNA--47">
          <mxGeometry y="30" width="170" height="30" as="geometry" />
        </mxCell>
        <mxCell id="FgiMyKoWZgUhgYiODNA--49" value="&lt;b style=&quot;border-color: var(--border-color);&quot;&gt;MATHOIGIAN&amp;nbsp;&lt;/b&gt;&lt;b style=&quot;border-color: var(--border-color);&quot;&gt;(FK)&lt;/b&gt;" style="text;strokeColor=none;fillColor=none;align=left;verticalAlign=middle;spacingLeft=4;spacingRight=4;overflow=hidden;points=[[0,0.5],[1,0.5]];portConstraint=eastwest;rotatable=0;whiteSpace=wrap;html=1;" vertex="1" parent="FgiMyKoWZgUhgYiODNA--47">
          <mxGeometry y="60" width="170" height="30" as="geometry" />
        </mxCell>
        <mxCell id="FgiMyKoWZgUhgYiODNA--50" value="&lt;b&gt;MABN&amp;nbsp;&lt;/b&gt;&lt;b style=&quot;border-color: var(--border-color);&quot;&gt;(FK)&lt;/b&gt;" style="text;strokeColor=none;fillColor=none;align=left;verticalAlign=middle;spacingLeft=4;spacingRight=4;overflow=hidden;points=[[0,0.5],[1,0.5]];portConstraint=eastwest;rotatable=0;whiteSpace=wrap;html=1;" vertex="1" parent="FgiMyKoWZgUhgYiODNA--47">
          <mxGeometry y="90" width="170" height="30" as="geometry" />
        </mxCell>
        <mxCell id="l7IOYMbLTNipjg3-SoHa-2" value="TINHTRANG" style="text;strokeColor=none;fillColor=none;align=left;verticalAlign=middle;spacingLeft=4;spacingRight=4;overflow=hidden;points=[[0,0.5],[1,0.5]];portConstraint=eastwest;rotatable=0;whiteSpace=wrap;html=1;fontStyle=0" vertex="1" parent="FgiMyKoWZgUhgYiODNA--47">
          <mxGeometry y="120" width="170" height="30" as="geometry" />
        </mxCell>
        <mxCell id="l7IOYMbLTNipjg3-SoHa-3" value="NGAYRAVIEN" style="text;strokeColor=none;fillColor=none;align=left;verticalAlign=middle;spacingLeft=4;spacingRight=4;overflow=hidden;points=[[0,0.5],[1,0.5]];portConstraint=eastwest;rotatable=0;whiteSpace=wrap;html=1;fontStyle=0" vertex="1" parent="FgiMyKoWZgUhgYiODNA--47">
          <mxGeometry y="150" width="170" height="30" as="geometry" />
        </mxCell>
        <mxCell id="l7IOYMbLTNipjg3-SoHa-4" value="NGAYSINH" style="text;strokeColor=none;fillColor=none;align=left;verticalAlign=middle;spacingLeft=4;spacingRight=4;overflow=hidden;points=[[0,0.5],[1,0.5]];portConstraint=eastwest;rotatable=0;whiteSpace=wrap;html=1;fontStyle=0" vertex="1" parent="FgiMyKoWZgUhgYiODNA--47">
          <mxGeometry y="180" width="170" height="30" as="geometry" />
        </mxCell>
        <mxCell id="cfPHM3lMwj91slz1Qg6P-1" value="NGAYTHANGNAM_HT" style="text;strokeColor=none;fillColor=none;align=left;verticalAlign=middle;spacingLeft=4;spacingRight=4;overflow=hidden;points=[[0,0.5],[1,0.5]];portConstraint=eastwest;rotatable=0;whiteSpace=wrap;html=1;fontStyle=0" vertex="1" parent="FgiMyKoWZgUhgYiODNA--47">
          <mxGeometry y="210" width="170" height="30" as="geometry" />
        </mxCell>
        <mxCell id="wXJu7Ae6dgggPRw4Vmmt-1" value="DOTUOI" style="text;strokeColor=none;fillColor=none;align=left;verticalAlign=middle;spacingLeft=4;spacingRight=4;overflow=hidden;points=[[0,0.5],[1,0.5]];portConstraint=eastwest;rotatable=0;whiteSpace=wrap;html=1;fontStyle=0" vertex="1" parent="FgiMyKoWZgUhgYiODNA--47">
          <mxGeometry y="240" width="170" height="30" as="geometry" />
        </mxCell>
        <mxCell id="l7IOYMbLTNipjg3-SoHa-1" value="SOLUONGBNTUVONG" style="text;strokeColor=none;fillColor=none;align=left;verticalAlign=middle;spacingLeft=4;spacingRight=4;overflow=hidden;points=[[0,0.5],[1,0.5]];portConstraint=eastwest;rotatable=0;whiteSpace=wrap;html=1;fontStyle=0" vertex="1" parent="FgiMyKoWZgUhgYiODNA--47">
          <mxGeometry y="270" width="170" height="30" as="geometry" />
        </mxCell>
        <mxCell id="wXJu7Ae6dgggPRw4Vmmt-2" value="" style="endArrow=none;html=1;rounded=0;exitX=0;exitY=0;exitDx=0;exitDy=0;exitPerimeter=0;" edge="1" parent="FgiMyKoWZgUhgYiODNA--47" source="wXJu7Ae6dgggPRw4Vmmt-1">
          <mxGeometry width="50" height="50" relative="1" as="geometry">
            <mxPoint x="-3" y="235" as="sourcePoint" />
            <mxPoint x="170" y="240" as="targetPoint" />
          </mxGeometry>
        </mxCell>
        <mxCell id="FgiMyKoWZgUhgYiODNA--51" value="&lt;b&gt;FACT_BN_QUAN&lt;/b&gt;" style="swimlane;fontStyle=0;childLayout=stackLayout;horizontal=1;startSize=30;horizontalStack=0;resizeParent=1;resizeParentMax=0;resizeLast=0;collapsible=1;marginBottom=0;whiteSpace=wrap;html=1;" vertex="1" parent="1">
          <mxGeometry x="305" y="-220" width="155" height="240" as="geometry" />
        </mxCell>
        <mxCell id="FgiMyKoWZgUhgYiODNA--52" value="&lt;span style=&quot;border-color: var(--border-color);&quot;&gt;&lt;b&gt;&lt;span style=&quot;border-color: var(--border-color);&quot;&gt;&lt;span style=&quot;border-color: var(--border-color);&quot;&gt;MABN_SK&amp;nbsp;&lt;/span&gt;&lt;/span&gt;(FK)&lt;/b&gt;&lt;/span&gt;" style="text;strokeColor=none;fillColor=none;align=left;verticalAlign=middle;spacingLeft=4;spacingRight=4;overflow=hidden;points=[[0,0.5],[1,0.5]];portConstraint=eastwest;rotatable=0;whiteSpace=wrap;html=1;" vertex="1" parent="FgiMyKoWZgUhgYiODNA--51">
          <mxGeometry y="30" width="155" height="30" as="geometry" />
        </mxCell>
        <mxCell id="FgiMyKoWZgUhgYiODNA--53" value="&lt;b&gt;MAKHUVUC (FK)&lt;/b&gt;" style="text;strokeColor=none;fillColor=none;align=left;verticalAlign=middle;spacingLeft=4;spacingRight=4;overflow=hidden;points=[[0,0.5],[1,0.5]];portConstraint=eastwest;rotatable=0;whiteSpace=wrap;html=1;" vertex="1" parent="FgiMyKoWZgUhgYiODNA--51">
          <mxGeometry y="60" width="155" height="30" as="geometry" />
        </mxCell>
        <mxCell id="tDnMkEvTYgc47R30CNf0-8" value="&lt;b style=&quot;border-color: var(--border-color);&quot;&gt;&lt;span style=&quot;border-color: var(--border-color);&quot;&gt;MADT_SK&amp;nbsp;&lt;/span&gt;&lt;/b&gt;&lt;b&gt;(FK)&lt;/b&gt;" style="text;strokeColor=none;fillColor=none;align=left;verticalAlign=middle;spacingLeft=4;spacingRight=4;overflow=hidden;points=[[0,0.5],[1,0.5]];portConstraint=eastwest;rotatable=0;whiteSpace=wrap;html=1;" vertex="1" parent="FgiMyKoWZgUhgYiODNA--51">
          <mxGeometry y="90" width="155" height="30" as="geometry" />
        </mxCell>
        <mxCell id="2PetHbLo2uPKM6bqAoOx-4" value="&lt;span style=&quot;border-color: var(--border-color);&quot;&gt;&lt;b style=&quot;border-color: var(--border-color);&quot;&gt;MADIEUTRI_SK (FK)&lt;/b&gt;&lt;/span&gt;" style="text;strokeColor=none;fillColor=none;align=left;verticalAlign=middle;spacingLeft=4;spacingRight=4;overflow=hidden;points=[[0,0.5],[1,0.5]];portConstraint=eastwest;rotatable=0;whiteSpace=wrap;html=1;" vertex="1" parent="FgiMyKoWZgUhgYiODNA--51">
          <mxGeometry y="120" width="155" height="30" as="geometry" />
        </mxCell>
        <mxCell id="Fc-wQFiZgW15RVWvlBwn-2" value="&lt;span style=&quot;border-color: var(--border-color);&quot;&gt;&lt;b style=&quot;border-color: var(--border-color);&quot;&gt;MADIEUTRI_SK (FK)&lt;/b&gt;&lt;/span&gt;" style="text;strokeColor=none;fillColor=none;align=left;verticalAlign=middle;spacingLeft=4;spacingRight=4;overflow=hidden;points=[[0,0.5],[1,0.5]];portConstraint=eastwest;rotatable=0;whiteSpace=wrap;html=1;" vertex="1" parent="FgiMyKoWZgUhgYiODNA--51">
          <mxGeometry y="150" width="155" height="30" as="geometry" />
        </mxCell>
        <mxCell id="NsWF-IU4PIWzY11ASFH0-4" value="" style="endArrow=none;html=1;rounded=0;entryX=1.008;entryY=0.954;entryDx=0;entryDy=0;entryPerimeter=0;exitX=-0.002;exitY=0.972;exitDx=0;exitDy=0;exitPerimeter=0;" edge="1" parent="FgiMyKoWZgUhgYiODNA--51">
          <mxGeometry width="50" height="50" relative="1" as="geometry">
            <mxPoint x="-6" y="180" as="sourcePoint" />
            <mxPoint x="155" y="179" as="targetPoint" />
          </mxGeometry>
        </mxCell>
        <mxCell id="Fc-wQFiZgW15RVWvlBwn-4" value="SOLUONGBNNGOAITRU" style="text;strokeColor=none;fillColor=none;align=left;verticalAlign=middle;spacingLeft=4;spacingRight=4;overflow=hidden;points=[[0,0.5],[1,0.5]];portConstraint=eastwest;rotatable=0;whiteSpace=wrap;html=1;fontStyle=0" vertex="1" parent="FgiMyKoWZgUhgYiODNA--51">
          <mxGeometry y="180" width="155" height="30" as="geometry" />
        </mxCell>
        <mxCell id="Fc-wQFiZgW15RVWvlBwn-3" value="SOLUONGBNNOITRU" style="text;strokeColor=none;fillColor=none;align=left;verticalAlign=middle;spacingLeft=4;spacingRight=4;overflow=hidden;points=[[0,0.5],[1,0.5]];portConstraint=eastwest;rotatable=0;whiteSpace=wrap;html=1;fontStyle=0" vertex="1" parent="FgiMyKoWZgUhgYiODNA--51">
          <mxGeometry y="210" width="155" height="30" as="geometry" />
        </mxCell>
        <mxCell id="FgiMyKoWZgUhgYiODNA--62" value=". Số lần nhập viện, tổng tiền thuốc của mỗi bệnh nhân theo từng tháng - Bảng BENH_AN và DONTHUOC_NGOAITRU cần được sử dụng để phân tích. &#xa;b. Số lượng, tổng tiền thuốc bán được của mỗi nhà sản xuất trong mỗi quý - Bảng THUOC và DONTHUOC_NOITRU cần được sử dụng để phân tích. &#xa;c. Số bệnh nhân nội trú/ ngoại trú theo từng quận - Bảng BENH_NHAN và BENH_AN, cũng có thể cần thông tin địa chỉ nếu được cung cấp. &#xa;d. So sánh số bệnh nhân tử vong (tháng/ quý/ năm) hoặc theo độ tuổi - Bảng BENH_AN cần được sử dụng để phân tích. &#xa;e. So sánh số thuốc được dùng điều trị (nội trú hoặc ngoại trú) của mỗi nhà sản xuất - Bảng THUOC và DONTHUOC_NOITRU cần được sử dụng để phân tích." style="text;whiteSpace=wrap;" vertex="1" parent="1">
          <mxGeometry x="70" y="1250" width="560" height="140" as="geometry" />
        </mxCell>
        <mxCell id="nmyubLUTcVs_d9xo-trU-1" value="" style="fontSize=14;html=1;endArrow=ERoneToMany;startArrow=ERmandOne;rounded=0;startSize=8;endSize=8;startFill=0;endFill=0;entryX=0.5;entryY=0;entryDx=0;entryDy=0;exitX=0.497;exitY=1.129;exitDx=0;exitDy=0;exitPerimeter=0;" edge="1" parent="1" source="FgiMyKoWZgUhgYiODNA--11" target="FgiMyKoWZgUhgYiODNA--21">
          <mxGeometry width="100" height="100" relative="1" as="geometry">
            <mxPoint x="310" y="340" as="sourcePoint" />
            <mxPoint x="344" y="413" as="targetPoint" />
          </mxGeometry>
        </mxCell>
        <mxCell id="tr3SEoHgQu0tGeS-I_hx-1" value="&lt;b&gt;DIM_KHUVUC&lt;/b&gt;" style="swimlane;fontStyle=0;childLayout=stackLayout;horizontal=1;startSize=30;horizontalStack=0;resizeParent=1;resizeParentMax=0;resizeLast=0;collapsible=1;marginBottom=0;whiteSpace=wrap;html=1;" vertex="1" parent="1">
          <mxGeometry x="305" y="-450" width="140" height="180" as="geometry" />
        </mxCell>
        <mxCell id="tr3SEoHgQu0tGeS-I_hx-2" value="&lt;b&gt;&lt;u&gt;MAKHUVUC&lt;/u&gt;&lt;/b&gt;" style="text;strokeColor=none;fillColor=none;align=left;verticalAlign=middle;spacingLeft=4;spacingRight=4;overflow=hidden;points=[[0,0.5],[1,0.5]];portConstraint=eastwest;rotatable=0;whiteSpace=wrap;html=1;" vertex="1" parent="tr3SEoHgQu0tGeS-I_hx-1">
          <mxGeometry y="30" width="140" height="30" as="geometry" />
        </mxCell>
        <mxCell id="tr3SEoHgQu0tGeS-I_hx-3" value="SONHA_DUONG" style="text;strokeColor=none;fillColor=none;align=left;verticalAlign=middle;spacingLeft=4;spacingRight=4;overflow=hidden;points=[[0,0.5],[1,0.5]];portConstraint=eastwest;rotatable=0;whiteSpace=wrap;html=1;" vertex="1" parent="tr3SEoHgQu0tGeS-I_hx-1">
          <mxGeometry y="60" width="140" height="30" as="geometry" />
        </mxCell>
        <mxCell id="TsPVke7E445tCqcUtMeh-1" value="PHUONG" style="text;strokeColor=none;fillColor=none;align=left;verticalAlign=middle;spacingLeft=4;spacingRight=4;overflow=hidden;points=[[0,0.5],[1,0.5]];portConstraint=eastwest;rotatable=0;whiteSpace=wrap;html=1;" vertex="1" parent="tr3SEoHgQu0tGeS-I_hx-1">
          <mxGeometry y="90" width="140" height="30" as="geometry" />
        </mxCell>
        <mxCell id="tr3SEoHgQu0tGeS-I_hx-4" value="QUAN" style="text;strokeColor=none;fillColor=none;align=left;verticalAlign=middle;spacingLeft=4;spacingRight=4;overflow=hidden;points=[[0,0.5],[1,0.5]];portConstraint=eastwest;rotatable=0;whiteSpace=wrap;html=1;" vertex="1" parent="tr3SEoHgQu0tGeS-I_hx-1">
          <mxGeometry y="120" width="140" height="30" as="geometry" />
        </mxCell>
        <mxCell id="tr3SEoHgQu0tGeS-I_hx-6" value="THANHPHO" style="text;strokeColor=none;fillColor=none;align=left;verticalAlign=middle;spacingLeft=4;spacingRight=4;overflow=hidden;points=[[0,0.5],[1,0.5]];portConstraint=eastwest;rotatable=0;whiteSpace=wrap;html=1;" vertex="1" parent="tr3SEoHgQu0tGeS-I_hx-1">
          <mxGeometry y="150" width="140" height="30" as="geometry" />
        </mxCell>
        <mxCell id="nmyubLUTcVs_d9xo-trU-8" value="" style="fontSize=14;html=1;endArrow=ERoneToMany;startArrow=ERmandOne;rounded=0;startSize=8;endSize=8;startFill=0;endFill=0;entryX=-0.009;entryY=0.76;entryDx=0;entryDy=0;exitX=1;exitY=0.5;exitDx=0;exitDy=0;entryPerimeter=0;edgeStyle=orthogonalEdgeStyle;" edge="1" parent="1" source="FgiMyKoWZgUhgYiODNA--9" target="FgiMyKoWZgUhgYiODNA--56">
          <mxGeometry width="100" height="100" relative="1" as="geometry">
            <mxPoint x="445" y="525" as="sourcePoint" />
            <mxPoint x="120" y="760" as="targetPoint" />
          </mxGeometry>
        </mxCell>
        <mxCell id="J9P1byzxgqglle6Twhin-1" value="&lt;b&gt;DIM_BENH_AN&lt;/b&gt;" style="swimlane;fontStyle=0;childLayout=stackLayout;horizontal=1;startSize=30;horizontalStack=0;resizeParent=1;resizeParentMax=0;resizeLast=0;collapsible=1;marginBottom=0;whiteSpace=wrap;html=1;" vertex="1" parent="1">
          <mxGeometry x="70" y="20" width="140" height="240" as="geometry" />
        </mxCell>
        <mxCell id="J9P1byzxgqglle6Twhin-2" value="&lt;b&gt;&lt;u&gt;MABA_SK&lt;/u&gt;&lt;/b&gt;" style="text;strokeColor=none;fillColor=none;align=left;verticalAlign=middle;spacingLeft=4;spacingRight=4;overflow=hidden;points=[[0,0.5],[1,0.5]];portConstraint=eastwest;rotatable=0;whiteSpace=wrap;html=1;" vertex="1" parent="J9P1byzxgqglle6Twhin-1">
          <mxGeometry y="30" width="140" height="30" as="geometry" />
        </mxCell>
        <mxCell id="1vkzH_eRQCfEwXHDGYKw-1" value="&lt;span&gt;&lt;span&gt;MABA_NK&lt;/span&gt;&lt;/span&gt;" style="text;strokeColor=none;fillColor=none;align=left;verticalAlign=middle;spacingLeft=4;spacingRight=4;overflow=hidden;points=[[0,0.5],[1,0.5]];portConstraint=eastwest;rotatable=0;whiteSpace=wrap;html=1;fontStyle=0" vertex="1" parent="J9P1byzxgqglle6Twhin-1">
          <mxGeometry y="60" width="140" height="30" as="geometry" />
        </mxCell>
        <mxCell id="J9P1byzxgqglle6Twhin-3" value="NGAYNHAPVIEN" style="text;strokeColor=none;fillColor=none;align=left;verticalAlign=middle;spacingLeft=4;spacingRight=4;overflow=hidden;points=[[0,0.5],[1,0.5]];portConstraint=eastwest;rotatable=0;whiteSpace=wrap;html=1;" vertex="1" parent="J9P1byzxgqglle6Twhin-1">
          <mxGeometry y="90" width="140" height="30" as="geometry" />
        </mxCell>
        <mxCell id="J9P1byzxgqglle6Twhin-4" value="NGAYRAVIEN" style="text;strokeColor=none;fillColor=none;align=left;verticalAlign=middle;spacingLeft=4;spacingRight=4;overflow=hidden;points=[[0,0.5],[1,0.5]];portConstraint=eastwest;rotatable=0;whiteSpace=wrap;html=1;" vertex="1" parent="J9P1byzxgqglle6Twhin-1">
          <mxGeometry y="120" width="140" height="30" as="geometry" />
        </mxCell>
        <mxCell id="J9P1byzxgqglle6Twhin-5" value="CHANDOAN" style="text;strokeColor=none;fillColor=none;align=left;verticalAlign=middle;spacingLeft=4;spacingRight=4;overflow=hidden;points=[[0,0.5],[1,0.5]];portConstraint=eastwest;rotatable=0;whiteSpace=wrap;html=1;" vertex="1" parent="J9P1byzxgqglle6Twhin-1">
          <mxGeometry y="150" width="140" height="30" as="geometry" />
        </mxCell>
        <mxCell id="J9P1byzxgqglle6Twhin-6" value="TINHTRANG" style="text;strokeColor=none;fillColor=none;align=left;verticalAlign=middle;spacingLeft=4;spacingRight=4;overflow=hidden;points=[[0,0.5],[1,0.5]];portConstraint=eastwest;rotatable=0;whiteSpace=wrap;html=1;" vertex="1" parent="J9P1byzxgqglle6Twhin-1">
          <mxGeometry y="180" width="140" height="30" as="geometry" />
        </mxCell>
        <mxCell id="J9P1byzxgqglle6Twhin-7" value="TIENTHUOC" style="text;strokeColor=none;fillColor=none;align=left;verticalAlign=middle;spacingLeft=4;spacingRight=4;overflow=hidden;points=[[0,0.5],[1,0.5]];portConstraint=eastwest;rotatable=0;whiteSpace=wrap;html=1;" vertex="1" parent="J9P1byzxgqglle6Twhin-1">
          <mxGeometry y="210" width="140" height="30" as="geometry" />
        </mxCell>
        <mxCell id="FgiMyKoWZgUhgYiODNA--55" value="&lt;b&gt;FACT_TONGTIENTHUOC&lt;/b&gt;" style="swimlane;fontStyle=0;childLayout=stackLayout;horizontal=1;startSize=30;horizontalStack=0;resizeParent=1;resizeParentMax=0;resizeLast=0;collapsible=1;marginBottom=0;whiteSpace=wrap;html=1;" vertex="1" parent="1">
          <mxGeometry x="540" y="350" width="160" height="180" as="geometry" />
        </mxCell>
        <mxCell id="FgiMyKoWZgUhgYiODNA--56" value="&lt;b&gt;&lt;span&gt;MATHUOC_SK (FK)&lt;/span&gt;&lt;/b&gt;" style="text;strokeColor=none;fillColor=none;align=left;verticalAlign=middle;spacingLeft=4;spacingRight=4;overflow=hidden;points=[[0,0.5],[1,0.5]];portConstraint=eastwest;rotatable=0;whiteSpace=wrap;html=1;fontStyle=0" vertex="1" parent="FgiMyKoWZgUhgYiODNA--55">
          <mxGeometry y="30" width="160" height="30" as="geometry" />
        </mxCell>
        <mxCell id="FgiMyKoWZgUhgYiODNA--57" value="&lt;b style=&quot;border-color: var(--border-color);&quot;&gt;MATHOIGIAN&amp;nbsp;&lt;/b&gt;&lt;b style=&quot;border-color: var(--border-color);&quot;&gt;(FK)&lt;/b&gt;" style="text;strokeColor=none;fillColor=none;align=left;verticalAlign=middle;spacingLeft=4;spacingRight=4;overflow=hidden;points=[[0,0.5],[1,0.5]];portConstraint=eastwest;rotatable=0;whiteSpace=wrap;html=1;" vertex="1" parent="FgiMyKoWZgUhgYiODNA--55">
          <mxGeometry y="60" width="160" height="30" as="geometry" />
        </mxCell>
        <mxCell id="FgiMyKoWZgUhgYiODNA--58" value="SL_DIEUTRI" style="text;strokeColor=none;fillColor=none;align=left;verticalAlign=middle;spacingLeft=4;spacingRight=4;overflow=hidden;points=[[0,0.5],[1,0.5]];portConstraint=eastwest;rotatable=0;whiteSpace=wrap;html=1;" vertex="1" parent="FgiMyKoWZgUhgYiODNA--55">
          <mxGeometry y="90" width="160" height="30" as="geometry" />
        </mxCell>
        <mxCell id="FgiMyKoWZgUhgYiODNA--59" value="DONGIA" style="text;strokeColor=none;fillColor=none;align=left;verticalAlign=middle;spacingLeft=4;spacingRight=4;overflow=hidden;points=[[0,0.5],[1,0.5]];portConstraint=eastwest;rotatable=0;whiteSpace=wrap;html=1;" vertex="1" parent="FgiMyKoWZgUhgYiODNA--55">
          <mxGeometry y="120" width="160" height="30" as="geometry" />
        </mxCell>
        <mxCell id="NsWF-IU4PIWzY11ASFH0-1" value="" style="endArrow=none;html=1;rounded=0;entryX=0.997;entryY=0.018;entryDx=0;entryDy=0;entryPerimeter=0;exitX=-0.002;exitY=0.972;exitDx=0;exitDy=0;exitPerimeter=0;" edge="1" parent="FgiMyKoWZgUhgYiODNA--55" target="ksZ-1FNNEg2ocBalfWZm-20">
          <mxGeometry width="50" height="50" relative="1" as="geometry">
            <mxPoint y="150" as="sourcePoint" />
            <mxPoint x="140" y="149" as="targetPoint" />
          </mxGeometry>
        </mxCell>
        <mxCell id="ksZ-1FNNEg2ocBalfWZm-20" value="TONGTIENTHUOC" style="text;strokeColor=none;fillColor=none;align=left;verticalAlign=middle;spacingLeft=4;spacingRight=4;overflow=hidden;points=[[0,0.5],[1,0.5]];portConstraint=eastwest;rotatable=0;whiteSpace=wrap;html=1;" vertex="1" parent="FgiMyKoWZgUhgYiODNA--55">
          <mxGeometry y="150" width="160" height="30" as="geometry" />
        </mxCell>
        <mxCell id="9nKlHcwXOwhSFSnhnAKy-2" value="&lt;b&gt;FACT_SOLUONGTHUOC&lt;/b&gt;" style="swimlane;fontStyle=0;childLayout=stackLayout;horizontal=1;startSize=30;horizontalStack=0;resizeParent=1;resizeParentMax=0;resizeLast=0;collapsible=1;marginBottom=0;whiteSpace=wrap;html=1;" vertex="1" parent="1">
          <mxGeometry x="810" y="370" width="160" height="180" as="geometry" />
        </mxCell>
        <mxCell id="9nKlHcwXOwhSFSnhnAKy-3" value="&lt;b&gt;&lt;span&gt;MATHUOC_SK (FK)&lt;/span&gt;&lt;/b&gt;" style="text;strokeColor=none;fillColor=none;align=left;verticalAlign=middle;spacingLeft=4;spacingRight=4;overflow=hidden;points=[[0,0.5],[1,0.5]];portConstraint=eastwest;rotatable=0;whiteSpace=wrap;html=1;fontStyle=0" vertex="1" parent="9nKlHcwXOwhSFSnhnAKy-2">
          <mxGeometry y="30" width="160" height="30" as="geometry" />
        </mxCell>
        <mxCell id="9nKlHcwXOwhSFSnhnAKy-5" value="&lt;b&gt;MANSX (FK)&lt;/b&gt;" style="text;strokeColor=none;fillColor=none;align=left;verticalAlign=middle;spacingLeft=4;spacingRight=4;overflow=hidden;points=[[0,0.5],[1,0.5]];portConstraint=eastwest;rotatable=0;whiteSpace=wrap;html=1;" vertex="1" parent="9nKlHcwXOwhSFSnhnAKy-2">
          <mxGeometry y="60" width="160" height="30" as="geometry" />
        </mxCell>
        <mxCell id="-9bNVU5pYI4A6XlYMauK-5" value="&lt;b&gt;MADVT (FK)&lt;/b&gt;" style="text;strokeColor=none;fillColor=none;align=left;verticalAlign=middle;spacingLeft=4;spacingRight=4;overflow=hidden;points=[[0,0.5],[1,0.5]];portConstraint=eastwest;rotatable=0;whiteSpace=wrap;html=1;" vertex="1" parent="9nKlHcwXOwhSFSnhnAKy-2">
          <mxGeometry y="90" width="160" height="30" as="geometry" />
        </mxCell>
        <mxCell id="NsWF-IU4PIWzY11ASFH0-3" value="DVT" style="text;strokeColor=none;fillColor=none;align=left;verticalAlign=middle;spacingLeft=4;spacingRight=4;overflow=hidden;points=[[0,0.5],[1,0.5]];portConstraint=eastwest;rotatable=0;whiteSpace=wrap;html=1;" vertex="1" parent="9nKlHcwXOwhSFSnhnAKy-2">
          <mxGeometry y="120" width="160" height="30" as="geometry" />
        </mxCell>
        <mxCell id="NsWF-IU4PIWzY11ASFH0-2" value="" style="endArrow=none;html=1;rounded=0;entryX=0.994;entryY=0.044;entryDx=0;entryDy=0;entryPerimeter=0;exitX=-0.002;exitY=0.972;exitDx=0;exitDy=0;exitPerimeter=0;" edge="1" parent="9nKlHcwXOwhSFSnhnAKy-2" target="NsWF-IU4PIWzY11ASFH0-3">
          <mxGeometry width="50" height="50" relative="1" as="geometry">
            <mxPoint y="120" as="sourcePoint" />
            <mxPoint x="140" y="119" as="targetPoint" />
          </mxGeometry>
        </mxCell>
        <mxCell id="ksZ-1FNNEg2ocBalfWZm-19" value="SOLUONGTHUOCBANRA" style="text;strokeColor=none;fillColor=none;align=left;verticalAlign=middle;spacingLeft=4;spacingRight=4;overflow=hidden;points=[[0,0.5],[1,0.5]];portConstraint=eastwest;rotatable=0;whiteSpace=wrap;html=1;" vertex="1" parent="9nKlHcwXOwhSFSnhnAKy-2">
          <mxGeometry y="150" width="160" height="30" as="geometry" />
        </mxCell>
        <mxCell id="cfPHM3lMwj91slz1Qg6P-2" value="" style="fontSize=14;html=1;endArrow=ERoneToMany;startArrow=ERmandOne;rounded=0;startSize=8;endSize=8;startFill=0;endFill=0;exitX=1;exitY=0.5;exitDx=0;exitDy=0;entryX=0.536;entryY=1.01;entryDx=0;entryDy=0;entryPerimeter=0;edgeStyle=orthogonalEdgeStyle;" edge="1" parent="1" source="FgiMyKoWZgUhgYiODNA--3" target="ksZ-1FNNEg2ocBalfWZm-19">
          <mxGeometry width="100" height="100" relative="1" as="geometry">
            <mxPoint x="870" y="74" as="sourcePoint" />
            <mxPoint x="880" y="206" as="targetPoint" />
          </mxGeometry>
        </mxCell>
        <mxCell id="nmyubLUTcVs_d9xo-trU-9" value="" style="fontSize=14;html=1;endArrow=ERoneToMany;startArrow=ERmandOne;rounded=0;startSize=8;endSize=8;startFill=0;endFill=0;exitX=0.25;exitY=0;exitDx=0;exitDy=0;entryX=0.484;entryY=0.985;entryDx=0;entryDy=0;entryPerimeter=0;edgeStyle=orthogonalEdgeStyle;" edge="1" parent="1" source="FgiMyKoWZgUhgYiODNA--1" target="FgiMyKoWZgUhgYiODNA--25">
          <mxGeometry width="100" height="100" relative="1" as="geometry">
            <mxPoint x="350" y="570" as="sourcePoint" />
            <mxPoint x="225" y="795" as="targetPoint" />
          </mxGeometry>
        </mxCell>
        <mxCell id="iKvqdUyp9dTwI4bnFlC4-1" value="" style="fontSize=14;html=1;endArrow=ERoneToMany;startArrow=ERmandOne;rounded=0;startSize=8;endSize=8;startFill=0;endFill=0;exitX=0.5;exitY=0;exitDx=0;exitDy=0;" edge="1" parent="1" source="FgiMyKoWZgUhgYiODNA--1" target="ksZ-1FNNEg2ocBalfWZm-20">
          <mxGeometry width="100" height="100" relative="1" as="geometry">
            <mxPoint x="382" y="550" as="sourcePoint" />
            <mxPoint x="360" y="660" as="targetPoint" />
          </mxGeometry>
        </mxCell>
        <mxCell id="cfPHM3lMwj91slz1Qg6P-3" value="" style="fontSize=14;html=1;endArrow=ERoneToMany;startArrow=ERmandOne;rounded=0;startSize=8;endSize=8;startFill=0;endFill=0;exitX=0;exitY=0.5;exitDx=0;exitDy=0;entryX=0.507;entryY=1.128;entryDx=0;entryDy=0;entryPerimeter=0;edgeStyle=orthogonalEdgeStyle;" edge="1" parent="1" source="FgiMyKoWZgUhgYiODNA--2" target="l7IOYMbLTNipjg3-SoHa-1">
          <mxGeometry width="100" height="100" relative="1" as="geometry">
            <mxPoint x="480" y="680" as="sourcePoint" />
            <mxPoint x="540" y="560" as="targetPoint" />
            <Array as="points">
              <mxPoint x="146" y="725" />
            </Array>
          </mxGeometry>
        </mxCell>
        <mxCell id="Duz2rfzAyp0CFBOsJsll-3" value="&lt;b&gt;FACT_SOTHUOCDUNGDIEUTRI&lt;/b&gt;" style="swimlane;fontStyle=0;childLayout=stackLayout;horizontal=1;startSize=30;horizontalStack=0;resizeParent=1;resizeParentMax=0;resizeLast=0;collapsible=1;marginBottom=0;whiteSpace=wrap;html=1;" vertex="1" parent="1">
          <mxGeometry x="795" y="-410" width="190" height="300" as="geometry" />
        </mxCell>
        <mxCell id="Duz2rfzAyp0CFBOsJsll-4" value="&lt;b&gt;MA_DIEUTRI_SK (FK)&lt;/b&gt;" style="text;strokeColor=none;fillColor=none;align=left;verticalAlign=middle;spacingLeft=4;spacingRight=4;overflow=hidden;points=[[0,0.5],[1,0.5]];portConstraint=eastwest;rotatable=0;whiteSpace=wrap;html=1;" vertex="1" parent="Duz2rfzAyp0CFBOsJsll-3">
          <mxGeometry y="30" width="190" height="30" as="geometry" />
        </mxCell>
        <mxCell id="Duz2rfzAyp0CFBOsJsll-5" value="&lt;b&gt;MADT_SK (FK)&lt;/b&gt;" style="text;strokeColor=none;fillColor=none;align=left;verticalAlign=middle;spacingLeft=4;spacingRight=4;overflow=hidden;points=[[0,0.5],[1,0.5]];portConstraint=eastwest;rotatable=0;whiteSpace=wrap;html=1;" vertex="1" parent="Duz2rfzAyp0CFBOsJsll-3">
          <mxGeometry y="60" width="190" height="30" as="geometry" />
        </mxCell>
        <mxCell id="Fc-wQFiZgW15RVWvlBwn-7" value="&lt;b&gt;MATHUOC_SK (FK)&lt;/b&gt;" style="text;strokeColor=none;fillColor=none;align=left;verticalAlign=middle;spacingLeft=4;spacingRight=4;overflow=hidden;points=[[0,0.5],[1,0.5]];portConstraint=eastwest;rotatable=0;whiteSpace=wrap;html=1;" vertex="1" parent="Duz2rfzAyp0CFBOsJsll-3">
          <mxGeometry y="90" width="190" height="30" as="geometry" />
        </mxCell>
        <mxCell id="Fc-wQFiZgW15RVWvlBwn-6" value="&lt;b&gt;MANSX (FK)&lt;/b&gt;" style="text;strokeColor=none;fillColor=none;align=left;verticalAlign=middle;spacingLeft=4;spacingRight=4;overflow=hidden;points=[[0,0.5],[1,0.5]];portConstraint=eastwest;rotatable=0;whiteSpace=wrap;html=1;" vertex="1" parent="Duz2rfzAyp0CFBOsJsll-3">
          <mxGeometry y="120" width="190" height="30" as="geometry" />
        </mxCell>
        <mxCell id="-9bNVU5pYI4A6XlYMauK-7" value="&lt;b&gt;MADVT (FK)&lt;/b&gt;" style="text;strokeColor=none;fillColor=none;align=left;verticalAlign=middle;spacingLeft=4;spacingRight=4;overflow=hidden;points=[[0,0.5],[1,0.5]];portConstraint=eastwest;rotatable=0;whiteSpace=wrap;html=1;" vertex="1" parent="Duz2rfzAyp0CFBOsJsll-3">
          <mxGeometry y="150" width="190" height="30" as="geometry" />
        </mxCell>
        <mxCell id="Duz2rfzAyp0CFBOsJsll-6" value="LOAI_DIEU_TRI " style="text;strokeColor=none;fillColor=none;align=left;verticalAlign=middle;spacingLeft=4;spacingRight=4;overflow=hidden;points=[[0,0.5],[1,0.5]];portConstraint=eastwest;rotatable=0;whiteSpace=wrap;html=1;" vertex="1" parent="Duz2rfzAyp0CFBOsJsll-3">
          <mxGeometry y="180" width="190" height="30" as="geometry" />
        </mxCell>
        <mxCell id="Duz2rfzAyp0CFBOsJsll-7" value="SOLUONG_DIEU_TRI" style="text;strokeColor=none;fillColor=none;align=left;verticalAlign=middle;spacingLeft=4;spacingRight=4;overflow=hidden;points=[[0,0.5],[1,0.5]];portConstraint=eastwest;rotatable=0;whiteSpace=wrap;html=1;" vertex="1" parent="Duz2rfzAyp0CFBOsJsll-3">
          <mxGeometry y="210" width="190" height="30" as="geometry" />
        </mxCell>
        <mxCell id="-9bNVU5pYI4A6XlYMauK-6" value="DVT" style="text;strokeColor=none;fillColor=none;align=left;verticalAlign=middle;spacingLeft=4;spacingRight=4;overflow=hidden;points=[[0,0.5],[1,0.5]];portConstraint=eastwest;rotatable=0;whiteSpace=wrap;html=1;" vertex="1" parent="Duz2rfzAyp0CFBOsJsll-3">
          <mxGeometry y="240" width="190" height="30" as="geometry" />
        </mxCell>
        <mxCell id="Fc-wQFiZgW15RVWvlBwn-5" value="" style="endArrow=none;html=1;rounded=0;entryX=0.992;entryY=-0.083;entryDx=0;entryDy=0;entryPerimeter=0;exitX=-0.002;exitY=0.972;exitDx=0;exitDy=0;exitPerimeter=0;" edge="1" parent="Duz2rfzAyp0CFBOsJsll-3" target="-9bNVU5pYI4A6XlYMauK-8">
          <mxGeometry width="50" height="50" relative="1" as="geometry">
            <mxPoint y="270" as="sourcePoint" />
            <mxPoint x="161" y="269" as="targetPoint" />
          </mxGeometry>
        </mxCell>
        <mxCell id="-9bNVU5pYI4A6XlYMauK-8" value="SOTHUOCDUNGDIEUTRI" style="text;strokeColor=none;fillColor=none;align=left;verticalAlign=middle;spacingLeft=4;spacingRight=4;overflow=hidden;points=[[0,0.5],[1,0.5]];portConstraint=eastwest;rotatable=0;whiteSpace=wrap;html=1;" vertex="1" parent="Duz2rfzAyp0CFBOsJsll-3">
          <mxGeometry y="270" width="190" height="30" as="geometry" />
        </mxCell>
        <mxCell id="Duz2rfzAyp0CFBOsJsll-9" value="&lt;b&gt;DIM_NHASANXUAT&lt;/b&gt;" style="swimlane;fontStyle=1;childLayout=stackLayout;horizontal=1;startSize=30;horizontalStack=0;resizeParent=1;resizeParentMax=0;resizeLast=0;collapsible=1;marginBottom=0;whiteSpace=wrap;html=1;" vertex="1" parent="1">
          <mxGeometry x="780" width="170" height="90" as="geometry" />
        </mxCell>
        <mxCell id="Duz2rfzAyp0CFBOsJsll-10" value="&lt;b&gt;MANSX&lt;/b&gt;" style="text;strokeColor=none;fillColor=none;align=left;verticalAlign=middle;spacingLeft=4;spacingRight=4;overflow=hidden;points=[[0,0.5],[1,0.5]];portConstraint=eastwest;rotatable=0;whiteSpace=wrap;html=1;" vertex="1" parent="Duz2rfzAyp0CFBOsJsll-9">
          <mxGeometry y="30" width="170" height="30" as="geometry" />
        </mxCell>
        <mxCell id="Duz2rfzAyp0CFBOsJsll-11" value="TENNSX" style="text;strokeColor=none;fillColor=none;align=left;verticalAlign=middle;spacingLeft=4;spacingRight=4;overflow=hidden;points=[[0,0.5],[1,0.5]];portConstraint=eastwest;rotatable=0;whiteSpace=wrap;html=1;" vertex="1" parent="Duz2rfzAyp0CFBOsJsll-9">
          <mxGeometry y="60" width="170" height="30" as="geometry" />
        </mxCell>
        <mxCell id="9nKlHcwXOwhSFSnhnAKy-9" value="" style="fontSize=14;html=1;endArrow=ERoneToMany;startArrow=ERmandOne;rounded=0;startSize=8;endSize=8;startFill=0;endFill=0;entryX=0.458;entryY=0.003;entryDx=0;entryDy=0;entryPerimeter=0;" edge="1" parent="1" source="ksZ-1FNNEg2ocBalfWZm-18" target="FgiMyKoWZgUhgYiODNA--55">
          <mxGeometry width="100" height="100" relative="1" as="geometry">
            <mxPoint x="610.3399999999999" y="294.2800000000002" as="sourcePoint" />
            <mxPoint x="610" y="305" as="targetPoint" />
          </mxGeometry>
        </mxCell>
        <mxCell id="cfPHM3lMwj91slz1Qg6P-4" value="" style="fontSize=14;html=1;endArrow=ERoneToMany;startArrow=ERmandOne;rounded=0;startSize=8;endSize=8;startFill=0;endFill=0;entryX=0.5;entryY=0;entryDx=0;entryDy=0;exitX=0.518;exitY=1.046;exitDx=0;exitDy=0;exitPerimeter=0;" edge="1" parent="1" source="J9P1byzxgqglle6Twhin-7" target="FgiMyKoWZgUhgYiODNA--47">
          <mxGeometry width="100" height="100" relative="1" as="geometry">
            <mxPoint x="172" y="270" as="sourcePoint" />
            <mxPoint x="315" y="370" as="targetPoint" />
          </mxGeometry>
        </mxCell>
        <mxCell id="ksZ-1FNNEg2ocBalfWZm-10" value="&lt;b&gt;DIM_THUOC&lt;/b&gt;" style="swimlane;fontStyle=0;childLayout=stackLayout;horizontal=1;startSize=30;horizontalStack=0;resizeParent=1;resizeParentMax=0;resizeLast=0;collapsible=1;marginBottom=0;whiteSpace=wrap;html=1;" vertex="1" parent="1">
          <mxGeometry x="540" width="140" height="270" as="geometry" />
        </mxCell>
        <mxCell id="ksZ-1FNNEg2ocBalfWZm-21" value="&lt;b&gt;&lt;u&gt;MATHUOC_SK&lt;/u&gt;&lt;/b&gt;" style="text;strokeColor=none;fillColor=none;align=left;verticalAlign=middle;spacingLeft=4;spacingRight=4;overflow=hidden;points=[[0,0.5],[1,0.5]];portConstraint=eastwest;rotatable=0;whiteSpace=wrap;html=1;" vertex="1" parent="ksZ-1FNNEg2ocBalfWZm-10">
          <mxGeometry y="30" width="140" height="30" as="geometry" />
        </mxCell>
        <mxCell id="ksZ-1FNNEg2ocBalfWZm-11" value="&lt;span&gt;&lt;span&gt;MATHUOC_NK&lt;/span&gt;&lt;/span&gt;" style="text;strokeColor=none;fillColor=none;align=left;verticalAlign=middle;spacingLeft=4;spacingRight=4;overflow=hidden;points=[[0,0.5],[1,0.5]];portConstraint=eastwest;rotatable=0;whiteSpace=wrap;html=1;fontStyle=0" vertex="1" parent="ksZ-1FNNEg2ocBalfWZm-10">
          <mxGeometry y="60" width="140" height="30" as="geometry" />
        </mxCell>
        <mxCell id="ksZ-1FNNEg2ocBalfWZm-12" value="TENTHUOC" style="text;strokeColor=none;fillColor=none;align=left;verticalAlign=middle;spacingLeft=4;spacingRight=4;overflow=hidden;points=[[0,0.5],[1,0.5]];portConstraint=eastwest;rotatable=0;whiteSpace=wrap;html=1;" vertex="1" parent="ksZ-1FNNEg2ocBalfWZm-10">
          <mxGeometry y="90" width="140" height="30" as="geometry" />
        </mxCell>
        <mxCell id="ksZ-1FNNEg2ocBalfWZm-13" value="ĐVT" style="text;strokeColor=none;fillColor=none;align=left;verticalAlign=middle;spacingLeft=4;spacingRight=4;overflow=hidden;points=[[0,0.5],[1,0.5]];portConstraint=eastwest;rotatable=0;whiteSpace=wrap;html=1;" vertex="1" parent="ksZ-1FNNEg2ocBalfWZm-10">
          <mxGeometry y="120" width="140" height="30" as="geometry" />
        </mxCell>
        <mxCell id="ksZ-1FNNEg2ocBalfWZm-14" value="MANSX" style="text;strokeColor=none;fillColor=none;align=left;verticalAlign=middle;spacingLeft=4;spacingRight=4;overflow=hidden;points=[[0,0.5],[1,0.5]];portConstraint=eastwest;rotatable=0;whiteSpace=wrap;html=1;" vertex="1" parent="ksZ-1FNNEg2ocBalfWZm-10">
          <mxGeometry y="150" width="140" height="30" as="geometry" />
        </mxCell>
        <mxCell id="ksZ-1FNNEg2ocBalfWZm-16" value="GIABAN" style="text;strokeColor=none;fillColor=none;align=left;verticalAlign=middle;spacingLeft=4;spacingRight=4;overflow=hidden;points=[[0,0.5],[1,0.5]];portConstraint=eastwest;rotatable=0;whiteSpace=wrap;html=1;" vertex="1" parent="ksZ-1FNNEg2ocBalfWZm-10">
          <mxGeometry y="180" width="140" height="30" as="geometry" />
        </mxCell>
        <mxCell id="ksZ-1FNNEg2ocBalfWZm-17" value="HANDUNG" style="text;strokeColor=none;fillColor=none;align=left;verticalAlign=middle;spacingLeft=4;spacingRight=4;overflow=hidden;points=[[0,0.5],[1,0.5]];portConstraint=eastwest;rotatable=0;whiteSpace=wrap;html=1;" vertex="1" parent="ksZ-1FNNEg2ocBalfWZm-10">
          <mxGeometry y="210" width="140" height="30" as="geometry" />
        </mxCell>
        <mxCell id="ksZ-1FNNEg2ocBalfWZm-18" value="BAOHIEM" style="text;strokeColor=none;fillColor=none;align=left;verticalAlign=middle;spacingLeft=4;spacingRight=4;overflow=hidden;points=[[0,0.5],[1,0.5]];portConstraint=eastwest;rotatable=0;whiteSpace=wrap;html=1;" vertex="1" parent="ksZ-1FNNEg2ocBalfWZm-10">
          <mxGeometry y="240" width="140" height="30" as="geometry" />
        </mxCell>
        <mxCell id="KQo3JDYSgUhljcmU0IGq-1" value="" style="fontSize=14;html=1;endArrow=ERoneToMany;startArrow=ERmandOne;rounded=0;startSize=8;endSize=8;startFill=0;endFill=0;exitX=0.497;exitY=1.018;exitDx=0;exitDy=0;exitPerimeter=0;entryX=0.5;entryY=0;entryDx=0;entryDy=0;" edge="1" parent="1" source="tr3SEoHgQu0tGeS-I_hx-6" target="FgiMyKoWZgUhgYiODNA--51">
          <mxGeometry width="100" height="100" relative="1" as="geometry">
            <mxPoint x="375" y="-50" as="sourcePoint" />
            <mxPoint x="360" y="-150" as="targetPoint" />
          </mxGeometry>
        </mxCell>
        <mxCell id="9nKlHcwXOwhSFSnhnAKy-10" value="" style="fontSize=14;html=1;endArrow=ERoneToMany;startArrow=ERmandOne;rounded=0;startSize=8;endSize=8;startFill=0;endFill=0;exitX=1;exitY=0.5;exitDx=0;exitDy=0;entryX=0.5;entryY=0;entryDx=0;entryDy=0;edgeStyle=orthogonalEdgeStyle;" edge="1" parent="1" target="9nKlHcwXOwhSFSnhnAKy-2">
          <mxGeometry width="100" height="100" relative="1" as="geometry">
            <mxPoint x="679.9999999999999" y="195" as="sourcePoint" />
            <mxPoint x="623" y="380" as="targetPoint" />
          </mxGeometry>
        </mxCell>
        <mxCell id="nmyubLUTcVs_d9xo-trU-3" value="" style="fontSize=14;html=1;endArrow=ERoneToMany;startArrow=ERmandOne;rounded=0;startSize=8;endSize=8;startFill=0;endFill=0;entryX=0;entryY=0.5;entryDx=0;entryDy=0;exitX=1;exitY=0.5;exitDx=0;exitDy=0;edgeStyle=orthogonalEdgeStyle;" edge="1" parent="1" source="J9P1byzxgqglle6Twhin-6" target="FgiMyKoWZgUhgYiODNA--23">
          <mxGeometry width="100" height="100" relative="1" as="geometry">
            <mxPoint x="378" y="370" as="sourcePoint" />
            <mxPoint x="384" y="275" as="targetPoint" />
          </mxGeometry>
        </mxCell>
        <mxCell id="KQo3JDYSgUhljcmU0IGq-3" value="" style="fontSize=14;html=1;endArrow=ERoneToMany;startArrow=ERmandOne;rounded=0;startSize=8;endSize=8;startFill=0;endFill=0;exitX=0.5;exitY=0;exitDx=0;exitDy=0;" edge="1" parent="1" source="FgiMyKoWZgUhgYiODNA--6" target="Fc-wQFiZgW15RVWvlBwn-3">
          <mxGeometry width="100" height="100" relative="1" as="geometry">
            <mxPoint x="630" y="690" as="sourcePoint" />
            <mxPoint x="374" y="-40" as="targetPoint" />
          </mxGeometry>
        </mxCell>
        <mxCell id="hL28RO49W6fzicAW4A38-1" value="&lt;b&gt;DIM_DONTHUOC_NGOAITRU&lt;/b&gt;" style="swimlane;fontStyle=0;childLayout=stackLayout;horizontal=1;startSize=30;horizontalStack=0;resizeParent=1;resizeParentMax=0;resizeLast=0;collapsible=1;marginBottom=0;whiteSpace=wrap;html=1;" vertex="1" parent="1">
          <mxGeometry x="530" y="-330" width="180" height="300" as="geometry" />
        </mxCell>
        <mxCell id="hL28RO49W6fzicAW4A38-2" value="&lt;b&gt;&lt;u&gt;MADT_SK&lt;br&gt;&lt;/u&gt;&lt;/b&gt;" style="text;strokeColor=none;fillColor=none;align=left;verticalAlign=middle;spacingLeft=4;spacingRight=4;overflow=hidden;points=[[0,0.5],[1,0.5]];portConstraint=eastwest;rotatable=0;whiteSpace=wrap;html=1;" vertex="1" parent="hL28RO49W6fzicAW4A38-1">
          <mxGeometry y="30" width="180" height="30" as="geometry" />
        </mxCell>
        <mxCell id="tDnMkEvTYgc47R30CNf0-12" value="MADT_NK" style="text;strokeColor=none;fillColor=none;align=left;verticalAlign=middle;spacingLeft=4;spacingRight=4;overflow=hidden;points=[[0,0.5],[1,0.5]];portConstraint=eastwest;rotatable=0;whiteSpace=wrap;html=1;" vertex="1" parent="hL28RO49W6fzicAW4A38-1">
          <mxGeometry y="60" width="180" height="30" as="geometry" />
        </mxCell>
        <mxCell id="hL28RO49W6fzicAW4A38-3" value="MATHUOC_NK" style="text;strokeColor=none;fillColor=none;align=left;verticalAlign=middle;spacingLeft=4;spacingRight=4;overflow=hidden;points=[[0,0.5],[1,0.5]];portConstraint=eastwest;rotatable=0;whiteSpace=wrap;html=1;fontStyle=0" vertex="1" parent="hL28RO49W6fzicAW4A38-1">
          <mxGeometry y="90" width="180" height="30" as="geometry" />
        </mxCell>
        <mxCell id="tDnMkEvTYgc47R30CNf0-10" value="MATHUOC_SK" style="text;strokeColor=none;fillColor=none;align=left;verticalAlign=middle;spacingLeft=4;spacingRight=4;overflow=hidden;points=[[0,0.5],[1,0.5]];portConstraint=eastwest;rotatable=0;whiteSpace=wrap;html=1;fontStyle=5" vertex="1" parent="hL28RO49W6fzicAW4A38-1">
          <mxGeometry y="120" width="180" height="30" as="geometry" />
        </mxCell>
        <mxCell id="hL28RO49W6fzicAW4A38-4" value="MABN" style="text;strokeColor=none;fillColor=none;align=left;verticalAlign=middle;spacingLeft=4;spacingRight=4;overflow=hidden;points=[[0,0.5],[1,0.5]];portConstraint=eastwest;rotatable=0;whiteSpace=wrap;html=1;fontStyle=0" vertex="1" parent="hL28RO49W6fzicAW4A38-1">
          <mxGeometry y="150" width="180" height="30" as="geometry" />
        </mxCell>
        <mxCell id="hL28RO49W6fzicAW4A38-5" value="NGAYKEDON" style="text;strokeColor=none;fillColor=none;align=left;verticalAlign=middle;spacingLeft=4;spacingRight=4;overflow=hidden;points=[[0,0.5],[1,0.5]];portConstraint=eastwest;rotatable=0;whiteSpace=wrap;html=1;" vertex="1" parent="hL28RO49W6fzicAW4A38-1">
          <mxGeometry y="180" width="180" height="30" as="geometry" />
        </mxCell>
        <mxCell id="hL28RO49W6fzicAW4A38-6" value="TENBACSI" style="text;strokeColor=none;fillColor=none;align=left;verticalAlign=middle;spacingLeft=4;spacingRight=4;overflow=hidden;points=[[0,0.5],[1,0.5]];portConstraint=eastwest;rotatable=0;whiteSpace=wrap;html=1;" vertex="1" parent="hL28RO49W6fzicAW4A38-1">
          <mxGeometry y="210" width="180" height="30" as="geometry" />
        </mxCell>
        <mxCell id="hL28RO49W6fzicAW4A38-7" value="SOLUONG" style="text;strokeColor=none;fillColor=none;align=left;verticalAlign=middle;spacingLeft=4;spacingRight=4;overflow=hidden;points=[[0,0.5],[1,0.5]];portConstraint=eastwest;rotatable=0;whiteSpace=wrap;html=1;" vertex="1" parent="hL28RO49W6fzicAW4A38-1">
          <mxGeometry y="240" width="180" height="30" as="geometry" />
        </mxCell>
        <mxCell id="hL28RO49W6fzicAW4A38-8" value="CACHDUNG" style="text;strokeColor=none;fillColor=none;align=left;verticalAlign=middle;spacingLeft=4;spacingRight=4;overflow=hidden;points=[[0,0.5],[1,0.5]];portConstraint=eastwest;rotatable=0;whiteSpace=wrap;html=1;" vertex="1" parent="hL28RO49W6fzicAW4A38-1">
          <mxGeometry y="270" width="180" height="30" as="geometry" />
        </mxCell>
        <mxCell id="tDnMkEvTYgc47R30CNf0-1" value="&lt;b&gt;DIM_DONTHUOC_NOITRU&lt;/b&gt;" style="swimlane;fontStyle=0;childLayout=stackLayout;horizontal=1;startSize=30;horizontalStack=0;resizeParent=1;resizeParentMax=0;resizeLast=0;collapsible=1;marginBottom=0;whiteSpace=wrap;html=1;" vertex="1" parent="1">
          <mxGeometry x="540" y="-600" width="160" height="240" as="geometry" />
        </mxCell>
        <mxCell id="tDnMkEvTYgc47R30CNf0-2" value="&lt;span style=&quot;&quot;&gt;&lt;span&gt;MADIEUTRI_NK&lt;/span&gt;&lt;/span&gt;" style="text;strokeColor=none;fillColor=none;align=left;verticalAlign=middle;spacingLeft=4;spacingRight=4;overflow=hidden;points=[[0,0.5],[1,0.5]];portConstraint=eastwest;rotatable=0;whiteSpace=wrap;html=1;fontStyle=0" vertex="1" parent="tDnMkEvTYgc47R30CNf0-1">
          <mxGeometry y="30" width="160" height="30" as="geometry" />
        </mxCell>
        <mxCell id="2PetHbLo2uPKM6bqAoOx-1" value="&lt;u style=&quot;&quot;&gt;&lt;b&gt;MADIEUTRI_SK&lt;/b&gt;&lt;/u&gt;" style="text;strokeColor=none;fillColor=none;align=left;verticalAlign=middle;spacingLeft=4;spacingRight=4;overflow=hidden;points=[[0,0.5],[1,0.5]];portConstraint=eastwest;rotatable=0;whiteSpace=wrap;html=1;" vertex="1" parent="tDnMkEvTYgc47R30CNf0-1">
          <mxGeometry y="60" width="160" height="30" as="geometry" />
        </mxCell>
        <mxCell id="tDnMkEvTYgc47R30CNf0-3" value="&lt;span&gt;&lt;span&gt;MABA&lt;/span&gt;&lt;/span&gt;" style="text;strokeColor=none;fillColor=none;align=left;verticalAlign=middle;spacingLeft=4;spacingRight=4;overflow=hidden;points=[[0,0.5],[1,0.5]];portConstraint=eastwest;rotatable=0;whiteSpace=wrap;html=1;fontStyle=0" vertex="1" parent="tDnMkEvTYgc47R30CNf0-1">
          <mxGeometry y="90" width="160" height="30" as="geometry" />
        </mxCell>
        <mxCell id="tDnMkEvTYgc47R30CNf0-4" value="&lt;span style=&quot;&quot;&gt;&lt;span style=&quot;&quot;&gt;MATHUOC&lt;/span&gt;&lt;/span&gt;" style="text;strokeColor=none;fillColor=none;align=left;verticalAlign=middle;spacingLeft=4;spacingRight=4;overflow=hidden;points=[[0,0.5],[1,0.5]];portConstraint=eastwest;rotatable=0;whiteSpace=wrap;html=1;fontStyle=0" vertex="1" parent="tDnMkEvTYgc47R30CNf0-1">
          <mxGeometry y="120" width="160" height="30" as="geometry" />
        </mxCell>
        <mxCell id="tDnMkEvTYgc47R30CNf0-5" value="SLDIEUTRI" style="text;strokeColor=none;fillColor=none;align=left;verticalAlign=middle;spacingLeft=4;spacingRight=4;overflow=hidden;points=[[0,0.5],[1,0.5]];portConstraint=eastwest;rotatable=0;whiteSpace=wrap;html=1;" vertex="1" parent="tDnMkEvTYgc47R30CNf0-1">
          <mxGeometry y="150" width="160" height="30" as="geometry" />
        </mxCell>
        <mxCell id="tDnMkEvTYgc47R30CNf0-6" value="CACHDIEUTRI" style="text;strokeColor=none;fillColor=none;align=left;verticalAlign=middle;spacingLeft=4;spacingRight=4;overflow=hidden;points=[[0,0.5],[1,0.5]];portConstraint=eastwest;rotatable=0;whiteSpace=wrap;html=1;" vertex="1" parent="tDnMkEvTYgc47R30CNf0-1">
          <mxGeometry y="180" width="160" height="30" as="geometry" />
        </mxCell>
        <mxCell id="tDnMkEvTYgc47R30CNf0-7" value="NGAYDIEUTRI" style="text;strokeColor=none;fillColor=none;align=left;verticalAlign=middle;spacingLeft=4;spacingRight=4;overflow=hidden;points=[[0,0.5],[1,0.5]];portConstraint=eastwest;rotatable=0;whiteSpace=wrap;html=1;" vertex="1" parent="tDnMkEvTYgc47R30CNf0-1">
          <mxGeometry y="210" width="160" height="30" as="geometry" />
        </mxCell>
        <mxCell id="wXJu7Ae6dgggPRw4Vmmt-4" value="" style="fontSize=14;html=1;endArrow=ERoneToMany;startArrow=ERmandOne;rounded=0;startSize=8;endSize=8;startFill=0;endFill=0;entryX=0.393;entryY=1.077;entryDx=0;entryDy=0;entryPerimeter=0;exitX=0.5;exitY=0;exitDx=0;exitDy=0;" edge="1" parent="1" source="Duz2rfzAyp0CFBOsJsll-9" target="-9bNVU5pYI4A6XlYMauK-8">
          <mxGeometry width="100" height="100" relative="1" as="geometry">
            <mxPoint x="960" y="-190" as="sourcePoint" />
            <mxPoint x="1000" y="-250" as="targetPoint" />
          </mxGeometry>
        </mxCell>
        <mxCell id="wXJu7Ae6dgggPRw4Vmmt-5" value="" style="fontSize=14;html=1;endArrow=ERoneToMany;startArrow=ERmandOne;rounded=0;startSize=8;endSize=8;startFill=0;endFill=0;entryX=0;entryY=0.5;entryDx=0;entryDy=0;exitX=1;exitY=0.5;exitDx=0;exitDy=0;" edge="1" parent="1" source="hL28RO49W6fzicAW4A38-6" target="Duz2rfzAyp0CFBOsJsll-6">
          <mxGeometry width="100" height="100" relative="1" as="geometry">
            <mxPoint x="885" y="-130" as="sourcePoint" />
            <mxPoint x="885" y="-219" as="targetPoint" />
          </mxGeometry>
        </mxCell>
        <mxCell id="wXJu7Ae6dgggPRw4Vmmt-6" value="" style="fontSize=14;html=1;endArrow=ERoneToMany;startArrow=ERmandOne;rounded=0;startSize=8;endSize=8;startFill=0;endFill=0;entryX=0;entryY=0.5;entryDx=0;entryDy=0;exitX=1;exitY=0.5;exitDx=0;exitDy=0;" edge="1" parent="1" source="tDnMkEvTYgc47R30CNf0-5" target="Duz2rfzAyp0CFBOsJsll-5">
          <mxGeometry width="100" height="100" relative="1" as="geometry">
            <mxPoint x="700" y="-105" as="sourcePoint" />
            <mxPoint x="810" y="-265" as="targetPoint" />
          </mxGeometry>
        </mxCell>
        <mxCell id="2PetHbLo2uPKM6bqAoOx-2" value="" style="fontSize=14;html=1;endArrow=ERoneToMany;startArrow=ERmandOne;rounded=0;startSize=8;endSize=8;startFill=0;endFill=0;exitX=0;exitY=0.5;exitDx=0;exitDy=0;entryX=1;entryY=0.25;entryDx=0;entryDy=0;edgeStyle=orthogonalEdgeStyle;" edge="1" parent="1" source="tDnMkEvTYgc47R30CNf0-4" target="FgiMyKoWZgUhgYiODNA--51">
          <mxGeometry width="100" height="100" relative="1" as="geometry">
            <mxPoint x="385" y="-219" as="sourcePoint" />
            <mxPoint x="385" y="-145" as="targetPoint" />
          </mxGeometry>
        </mxCell>
        <mxCell id="2PetHbLo2uPKM6bqAoOx-3" value="" style="fontSize=14;html=1;endArrow=ERoneToMany;startArrow=ERmandOne;rounded=0;startSize=8;endSize=8;startFill=0;endFill=0;exitX=0;exitY=0.5;exitDx=0;exitDy=0;entryX=1;entryY=0.5;entryDx=0;entryDy=0;" edge="1" parent="1" source="hL28RO49W6fzicAW4A38-7" target="tDnMkEvTYgc47R30CNf0-8">
          <mxGeometry width="100" height="100" relative="1" as="geometry">
            <mxPoint x="395" y="-209" as="sourcePoint" />
            <mxPoint x="395" y="-135" as="targetPoint" />
          </mxGeometry>
        </mxCell>
        <mxCell id="-9bNVU5pYI4A6XlYMauK-1" value="&lt;b&gt;DONVITINH&lt;/b&gt;" style="swimlane;fontStyle=0;childLayout=stackLayout;horizontal=1;startSize=30;horizontalStack=0;resizeParent=1;resizeParentMax=0;resizeLast=0;collapsible=1;marginBottom=0;whiteSpace=wrap;html=1;" vertex="1" parent="1">
          <mxGeometry x="1050" y="380" width="140" height="90" as="geometry" />
        </mxCell>
        <mxCell id="-9bNVU5pYI4A6XlYMauK-2" value="&lt;b&gt;MADVT&lt;/b&gt;" style="text;strokeColor=none;fillColor=none;align=left;verticalAlign=middle;spacingLeft=4;spacingRight=4;overflow=hidden;points=[[0,0.5],[1,0.5]];portConstraint=eastwest;rotatable=0;whiteSpace=wrap;html=1;fontStyle=4" vertex="1" parent="-9bNVU5pYI4A6XlYMauK-1">
          <mxGeometry y="30" width="140" height="30" as="geometry" />
        </mxCell>
        <mxCell id="-9bNVU5pYI4A6XlYMauK-3" value="DVT" style="text;strokeColor=none;fillColor=none;align=left;verticalAlign=middle;spacingLeft=4;spacingRight=4;overflow=hidden;points=[[0,0.5],[1,0.5]];portConstraint=eastwest;rotatable=0;whiteSpace=wrap;html=1;" vertex="1" parent="-9bNVU5pYI4A6XlYMauK-1">
          <mxGeometry y="60" width="140" height="30" as="geometry" />
        </mxCell>
        <mxCell id="-9bNVU5pYI4A6XlYMauK-4" value="" style="fontSize=14;html=1;endArrow=ERoneToMany;startArrow=ERmandOne;rounded=0;startSize=8;endSize=8;startFill=0;endFill=0;exitX=0;exitY=0.5;exitDx=0;exitDy=0;entryX=1;entryY=0.5;entryDx=0;entryDy=0;" edge="1" parent="1" source="-9bNVU5pYI4A6XlYMauK-2" target="9nKlHcwXOwhSFSnhnAKy-3">
          <mxGeometry width="100" height="100" relative="1" as="geometry">
            <mxPoint x="700" y="765" as="sourcePoint" />
            <mxPoint x="906" y="530" as="targetPoint" />
          </mxGeometry>
        </mxCell>
        <mxCell id="-9bNVU5pYI4A6XlYMauK-9" value="" style="fontSize=14;html=1;endArrow=ERoneToMany;startArrow=ERmandOne;rounded=0;startSize=8;endSize=8;startFill=0;endFill=0;entryX=1.011;entryY=1.019;entryDx=0;entryDy=0;entryPerimeter=0;exitX=0.5;exitY=0;exitDx=0;exitDy=0;" edge="1" parent="1" source="-9bNVU5pYI4A6XlYMauK-1" target="-9bNVU5pYI4A6XlYMauK-8">
          <mxGeometry width="100" height="100" relative="1" as="geometry">
            <mxPoint x="895" y="-20" as="sourcePoint" />
            <mxPoint x="880" y="-98" as="targetPoint" />
          </mxGeometry>
        </mxCell>
      </root>
    </mxGraphModel>
  </diagram>
</mxfile>
